<mxfile host="Electron" modified="2023-04-13T14:14:01.073Z" agent="Mozilla/5.0 (Windows NT 10.0; Win64; x64) AppleWebKit/537.36 (KHTML, like Gecko) draw.io/21.1.2 Chrome/106.0.5249.199 Electron/21.4.3 Safari/537.36" etag="GMDRhxuTlzVz609KctGH" version="21.1.2" type="device">
  <diagram id="NA34xrSxOy8KxDaq_v-y" name="Page-1">
    <mxGraphModel dx="1418" dy="828" grid="0" gridSize="10" guides="1" tooltips="1" connect="1" arrows="1" fold="1" page="1" pageScale="1" pageWidth="1654" pageHeight="1169" background="#EEEEEE" math="0" shadow="0">
      <root>
        <mxCell id="0" />
        <mxCell id="1" parent="0" />
        <mxCell id="X1LZYcvNkwWMeeYN3kK6-2" value="Route" style="shape=table;startSize=30;container=1;collapsible=1;childLayout=tableLayout;fixedRows=1;rowLines=0;fontStyle=1;align=center;resizeLast=1;rounded=1;fillColor=#F5AB50;strokeColor=#909090;fontColor=#1A1A1A;" parent="1" vertex="1">
          <mxGeometry x="476.53" y="391" width="120" height="210" as="geometry">
            <mxRectangle x="360" y="570" width="70" height="30" as="alternateBounds" />
          </mxGeometry>
        </mxCell>
        <mxCell id="X1LZYcvNkwWMeeYN3kK6-3" value="" style="shape=tableRow;horizontal=0;startSize=0;swimlaneHead=0;swimlaneBody=0;fillColor=none;collapsible=0;dropTarget=0;points=[[0,0.5],[1,0.5]];portConstraint=eastwest;top=0;left=0;right=0;bottom=1;rounded=1;strokeColor=#909090;fontColor=#1A1A1A;" parent="X1LZYcvNkwWMeeYN3kK6-2" vertex="1">
          <mxGeometry y="30" width="120" height="30" as="geometry" />
        </mxCell>
        <mxCell id="X1LZYcvNkwWMeeYN3kK6-4" value="PK" style="shape=partialRectangle;connectable=0;fillColor=none;top=0;left=0;bottom=0;right=0;fontStyle=1;overflow=hidden;rounded=1;strokeColor=#909090;fontColor=#1A1A1A;" parent="X1LZYcvNkwWMeeYN3kK6-3" vertex="1">
          <mxGeometry width="30" height="30" as="geometry">
            <mxRectangle width="30" height="30" as="alternateBounds" />
          </mxGeometry>
        </mxCell>
        <mxCell id="X1LZYcvNkwWMeeYN3kK6-5" value="id" style="shape=partialRectangle;connectable=0;fillColor=none;top=0;left=0;bottom=0;right=0;align=left;spacingLeft=6;fontStyle=5;overflow=hidden;rounded=1;strokeColor=#909090;fontColor=#1A1A1A;" parent="X1LZYcvNkwWMeeYN3kK6-3" vertex="1">
          <mxGeometry x="30" width="90" height="30" as="geometry">
            <mxRectangle width="90" height="30" as="alternateBounds" />
          </mxGeometry>
        </mxCell>
        <mxCell id="X1LZYcvNkwWMeeYN3kK6-6" value="" style="shape=tableRow;horizontal=0;startSize=0;swimlaneHead=0;swimlaneBody=0;fillColor=none;collapsible=0;dropTarget=0;points=[[0,0.5],[1,0.5]];portConstraint=eastwest;top=0;left=0;right=0;bottom=0;rounded=1;strokeColor=#909090;fontColor=#1A1A1A;" parent="X1LZYcvNkwWMeeYN3kK6-2" vertex="1">
          <mxGeometry y="60" width="120" height="30" as="geometry" />
        </mxCell>
        <mxCell id="X1LZYcvNkwWMeeYN3kK6-7" value="FK" style="shape=partialRectangle;connectable=0;fillColor=none;top=0;left=0;bottom=0;right=0;editable=1;overflow=hidden;rounded=1;strokeColor=#909090;fontColor=#1A1A1A;" parent="X1LZYcvNkwWMeeYN3kK6-6" vertex="1">
          <mxGeometry width="30" height="30" as="geometry">
            <mxRectangle width="30" height="30" as="alternateBounds" />
          </mxGeometry>
        </mxCell>
        <mxCell id="X1LZYcvNkwWMeeYN3kK6-8" value="origin" style="shape=partialRectangle;connectable=0;fillColor=none;top=0;left=0;bottom=0;right=0;align=left;spacingLeft=6;overflow=hidden;rounded=1;strokeColor=#909090;fontColor=#1A1A1A;" parent="X1LZYcvNkwWMeeYN3kK6-6" vertex="1">
          <mxGeometry x="30" width="90" height="30" as="geometry">
            <mxRectangle width="90" height="30" as="alternateBounds" />
          </mxGeometry>
        </mxCell>
        <mxCell id="X1LZYcvNkwWMeeYN3kK6-9" value="" style="shape=tableRow;horizontal=0;startSize=0;swimlaneHead=0;swimlaneBody=0;fillColor=none;collapsible=0;dropTarget=0;points=[[0,0.5],[1,0.5]];portConstraint=eastwest;top=0;left=0;right=0;bottom=0;rounded=1;strokeColor=#909090;fontColor=#1A1A1A;" parent="X1LZYcvNkwWMeeYN3kK6-2" vertex="1">
          <mxGeometry y="90" width="120" height="30" as="geometry" />
        </mxCell>
        <mxCell id="X1LZYcvNkwWMeeYN3kK6-10" value="FK" style="shape=partialRectangle;connectable=0;fillColor=none;top=0;left=0;bottom=0;right=0;editable=1;overflow=hidden;rounded=1;strokeColor=#909090;fontColor=#1A1A1A;" parent="X1LZYcvNkwWMeeYN3kK6-9" vertex="1">
          <mxGeometry width="30" height="30" as="geometry">
            <mxRectangle width="30" height="30" as="alternateBounds" />
          </mxGeometry>
        </mxCell>
        <mxCell id="X1LZYcvNkwWMeeYN3kK6-11" value="destination" style="shape=partialRectangle;connectable=0;fillColor=none;top=0;left=0;bottom=0;right=0;align=left;spacingLeft=6;overflow=hidden;rounded=1;strokeColor=#909090;fontColor=#1A1A1A;" parent="X1LZYcvNkwWMeeYN3kK6-9" vertex="1">
          <mxGeometry x="30" width="90" height="30" as="geometry">
            <mxRectangle width="90" height="30" as="alternateBounds" />
          </mxGeometry>
        </mxCell>
        <mxCell id="X1LZYcvNkwWMeeYN3kK6-12" value="" style="shape=tableRow;horizontal=0;startSize=0;swimlaneHead=0;swimlaneBody=0;fillColor=none;collapsible=0;dropTarget=0;points=[[0,0.5],[1,0.5]];portConstraint=eastwest;top=0;left=0;right=0;bottom=0;rounded=1;strokeColor=#909090;fontColor=#1A1A1A;" parent="X1LZYcvNkwWMeeYN3kK6-2" vertex="1">
          <mxGeometry y="120" width="120" height="30" as="geometry" />
        </mxCell>
        <mxCell id="X1LZYcvNkwWMeeYN3kK6-13" value="" style="shape=partialRectangle;connectable=0;fillColor=none;top=0;left=0;bottom=0;right=0;editable=1;overflow=hidden;rounded=1;strokeColor=#909090;fontColor=#1A1A1A;" parent="X1LZYcvNkwWMeeYN3kK6-12" vertex="1">
          <mxGeometry width="30" height="30" as="geometry">
            <mxRectangle width="30" height="30" as="alternateBounds" />
          </mxGeometry>
        </mxCell>
        <mxCell id="X1LZYcvNkwWMeeYN3kK6-14" value="depart_time" style="shape=partialRectangle;connectable=0;fillColor=none;top=0;left=0;bottom=0;right=0;align=left;spacingLeft=6;overflow=hidden;rounded=1;strokeColor=#909090;fontColor=#1A1A1A;" parent="X1LZYcvNkwWMeeYN3kK6-12" vertex="1">
          <mxGeometry x="30" width="90" height="30" as="geometry">
            <mxRectangle width="90" height="30" as="alternateBounds" />
          </mxGeometry>
        </mxCell>
        <mxCell id="X1LZYcvNkwWMeeYN3kK6-21" style="shape=tableRow;horizontal=0;startSize=0;swimlaneHead=0;swimlaneBody=0;fillColor=none;collapsible=0;dropTarget=0;points=[[0,0.5],[1,0.5]];portConstraint=eastwest;top=0;left=0;right=0;bottom=0;rounded=1;strokeColor=#909090;fontColor=#1A1A1A;" parent="X1LZYcvNkwWMeeYN3kK6-2" vertex="1">
          <mxGeometry y="150" width="120" height="30" as="geometry" />
        </mxCell>
        <mxCell id="X1LZYcvNkwWMeeYN3kK6-22" style="shape=partialRectangle;connectable=0;fillColor=none;top=0;left=0;bottom=0;right=0;editable=1;overflow=hidden;rounded=1;strokeColor=#909090;fontColor=#1A1A1A;" parent="X1LZYcvNkwWMeeYN3kK6-21" vertex="1">
          <mxGeometry width="30" height="30" as="geometry">
            <mxRectangle width="30" height="30" as="alternateBounds" />
          </mxGeometry>
        </mxCell>
        <mxCell id="X1LZYcvNkwWMeeYN3kK6-23" value="duration" style="shape=partialRectangle;connectable=0;fillColor=none;top=0;left=0;bottom=0;right=0;align=left;spacingLeft=6;overflow=hidden;rounded=1;strokeColor=#909090;fontColor=#1A1A1A;" parent="X1LZYcvNkwWMeeYN3kK6-21" vertex="1">
          <mxGeometry x="30" width="90" height="30" as="geometry">
            <mxRectangle width="90" height="30" as="alternateBounds" />
          </mxGeometry>
        </mxCell>
        <mxCell id="X1LZYcvNkwWMeeYN3kK6-24" style="shape=tableRow;horizontal=0;startSize=0;swimlaneHead=0;swimlaneBody=0;fillColor=none;collapsible=0;dropTarget=0;points=[[0,0.5],[1,0.5]];portConstraint=eastwest;top=0;left=0;right=0;bottom=0;rounded=1;strokeColor=#909090;fontColor=#1A1A1A;" parent="X1LZYcvNkwWMeeYN3kK6-2" vertex="1">
          <mxGeometry y="180" width="120" height="30" as="geometry" />
        </mxCell>
        <mxCell id="X1LZYcvNkwWMeeYN3kK6-25" style="shape=partialRectangle;connectable=0;fillColor=none;top=0;left=0;bottom=0;right=0;editable=1;overflow=hidden;rounded=1;strokeColor=#909090;fontColor=#1A1A1A;" parent="X1LZYcvNkwWMeeYN3kK6-24" vertex="1">
          <mxGeometry width="30" height="30" as="geometry">
            <mxRectangle width="30" height="30" as="alternateBounds" />
          </mxGeometry>
        </mxCell>
        <mxCell id="X1LZYcvNkwWMeeYN3kK6-26" value="base_price" style="shape=partialRectangle;connectable=0;fillColor=none;top=0;left=0;bottom=0;right=0;align=left;spacingLeft=6;overflow=hidden;rounded=1;strokeColor=#909090;fontColor=#1A1A1A;" parent="X1LZYcvNkwWMeeYN3kK6-24" vertex="1">
          <mxGeometry x="30" width="90" height="30" as="geometry">
            <mxRectangle width="90" height="30" as="alternateBounds" />
          </mxGeometry>
        </mxCell>
        <mxCell id="X1LZYcvNkwWMeeYN3kK6-27" value="Airport" style="shape=table;startSize=30;container=1;collapsible=1;childLayout=tableLayout;fixedRows=1;rowLines=0;fontStyle=1;align=center;resizeLast=1;rounded=1;fillColor=#F5AB50;strokeColor=#909090;fontColor=#1A1A1A;" parent="1" vertex="1">
          <mxGeometry x="337" y="437" width="100" height="120" as="geometry" />
        </mxCell>
        <mxCell id="X1LZYcvNkwWMeeYN3kK6-28" value="" style="shape=tableRow;horizontal=0;startSize=0;swimlaneHead=0;swimlaneBody=0;fillColor=none;collapsible=0;dropTarget=0;points=[[0,0.5],[1,0.5]];portConstraint=eastwest;top=0;left=0;right=0;bottom=1;rounded=1;strokeColor=#909090;fontColor=#1A1A1A;" parent="X1LZYcvNkwWMeeYN3kK6-27" vertex="1">
          <mxGeometry y="30" width="100" height="30" as="geometry" />
        </mxCell>
        <mxCell id="X1LZYcvNkwWMeeYN3kK6-29" value="PK" style="shape=partialRectangle;connectable=0;fillColor=none;top=0;left=0;bottom=0;right=0;fontStyle=1;overflow=hidden;rounded=1;strokeColor=#909090;fontColor=#1A1A1A;" parent="X1LZYcvNkwWMeeYN3kK6-28" vertex="1">
          <mxGeometry width="30" height="30" as="geometry">
            <mxRectangle width="30" height="30" as="alternateBounds" />
          </mxGeometry>
        </mxCell>
        <mxCell id="X1LZYcvNkwWMeeYN3kK6-30" value="iata_code" style="shape=partialRectangle;connectable=0;fillColor=none;top=0;left=0;bottom=0;right=0;align=left;spacingLeft=6;fontStyle=5;overflow=hidden;rounded=1;strokeColor=#909090;fontColor=#1A1A1A;" parent="X1LZYcvNkwWMeeYN3kK6-28" vertex="1">
          <mxGeometry x="30" width="70" height="30" as="geometry">
            <mxRectangle width="70" height="30" as="alternateBounds" />
          </mxGeometry>
        </mxCell>
        <mxCell id="X1LZYcvNkwWMeeYN3kK6-31" value="" style="shape=tableRow;horizontal=0;startSize=0;swimlaneHead=0;swimlaneBody=0;fillColor=none;collapsible=0;dropTarget=0;points=[[0,0.5],[1,0.5]];portConstraint=eastwest;top=0;left=0;right=0;bottom=0;rounded=1;strokeColor=#909090;fontColor=#1A1A1A;" parent="X1LZYcvNkwWMeeYN3kK6-27" vertex="1">
          <mxGeometry y="60" width="100" height="30" as="geometry" />
        </mxCell>
        <mxCell id="X1LZYcvNkwWMeeYN3kK6-32" value="" style="shape=partialRectangle;connectable=0;fillColor=none;top=0;left=0;bottom=0;right=0;editable=1;overflow=hidden;rounded=1;strokeColor=#909090;fontColor=#1A1A1A;" parent="X1LZYcvNkwWMeeYN3kK6-31" vertex="1">
          <mxGeometry width="30" height="30" as="geometry">
            <mxRectangle width="30" height="30" as="alternateBounds" />
          </mxGeometry>
        </mxCell>
        <mxCell id="X1LZYcvNkwWMeeYN3kK6-33" value="name" style="shape=partialRectangle;connectable=0;fillColor=none;top=0;left=0;bottom=0;right=0;align=left;spacingLeft=6;overflow=hidden;rounded=1;strokeColor=#909090;fontColor=#1A1A1A;" parent="X1LZYcvNkwWMeeYN3kK6-31" vertex="1">
          <mxGeometry x="30" width="70" height="30" as="geometry">
            <mxRectangle width="70" height="30" as="alternateBounds" />
          </mxGeometry>
        </mxCell>
        <mxCell id="X1LZYcvNkwWMeeYN3kK6-34" value="" style="shape=tableRow;horizontal=0;startSize=0;swimlaneHead=0;swimlaneBody=0;fillColor=none;collapsible=0;dropTarget=0;points=[[0,0.5],[1,0.5]];portConstraint=eastwest;top=0;left=0;right=0;bottom=0;rounded=1;strokeColor=#909090;fontColor=#1A1A1A;" parent="X1LZYcvNkwWMeeYN3kK6-27" vertex="1">
          <mxGeometry y="90" width="100" height="30" as="geometry" />
        </mxCell>
        <mxCell id="X1LZYcvNkwWMeeYN3kK6-35" value="" style="shape=partialRectangle;connectable=0;fillColor=none;top=0;left=0;bottom=0;right=0;editable=1;overflow=hidden;rounded=1;strokeColor=#909090;fontColor=#1A1A1A;" parent="X1LZYcvNkwWMeeYN3kK6-34" vertex="1">
          <mxGeometry width="30" height="30" as="geometry">
            <mxRectangle width="30" height="30" as="alternateBounds" />
          </mxGeometry>
        </mxCell>
        <mxCell id="X1LZYcvNkwWMeeYN3kK6-36" value="city" style="shape=partialRectangle;connectable=0;fillColor=none;top=0;left=0;bottom=0;right=0;align=left;spacingLeft=6;overflow=hidden;rounded=1;strokeColor=#909090;fontColor=#1A1A1A;" parent="X1LZYcvNkwWMeeYN3kK6-34" vertex="1">
          <mxGeometry x="30" width="70" height="30" as="geometry">
            <mxRectangle width="70" height="30" as="alternateBounds" />
          </mxGeometry>
        </mxCell>
        <mxCell id="X1LZYcvNkwWMeeYN3kK6-42" value="Aircraft" style="shape=table;startSize=30;container=1;collapsible=1;childLayout=tableLayout;fixedRows=1;rowLines=0;fontStyle=1;align=center;resizeLast=1;rounded=1;fillColor=#F5AB50;strokeColor=#909090;fontColor=#1A1A1A;" parent="1" vertex="1">
          <mxGeometry x="347.53" y="571" width="89.47058823529414" height="150" as="geometry" />
        </mxCell>
        <mxCell id="X1LZYcvNkwWMeeYN3kK6-43" value="" style="shape=tableRow;horizontal=0;startSize=0;swimlaneHead=0;swimlaneBody=0;fillColor=none;collapsible=0;dropTarget=0;points=[[0,0.5],[1,0.5]];portConstraint=eastwest;top=0;left=0;right=0;bottom=1;rounded=1;strokeColor=#909090;fontColor=#1A1A1A;" parent="X1LZYcvNkwWMeeYN3kK6-42" vertex="1">
          <mxGeometry y="30" width="89.47058823529414" height="30" as="geometry" />
        </mxCell>
        <mxCell id="X1LZYcvNkwWMeeYN3kK6-44" value="PK" style="shape=partialRectangle;connectable=0;fillColor=none;top=0;left=0;bottom=0;right=0;fontStyle=1;overflow=hidden;rounded=1;strokeColor=#909090;fontColor=#1A1A1A;" parent="X1LZYcvNkwWMeeYN3kK6-43" vertex="1">
          <mxGeometry width="30" height="30" as="geometry">
            <mxRectangle width="30" height="30" as="alternateBounds" />
          </mxGeometry>
        </mxCell>
        <mxCell id="X1LZYcvNkwWMeeYN3kK6-45" value="ac_id" style="shape=partialRectangle;connectable=0;fillColor=none;top=0;left=0;bottom=0;right=0;align=left;spacingLeft=6;fontStyle=5;overflow=hidden;rounded=1;strokeColor=#909090;fontColor=#1A1A1A;" parent="X1LZYcvNkwWMeeYN3kK6-43" vertex="1">
          <mxGeometry x="30" width="59.470588235294144" height="30" as="geometry">
            <mxRectangle width="59.470588235294144" height="30" as="alternateBounds" />
          </mxGeometry>
        </mxCell>
        <mxCell id="X1LZYcvNkwWMeeYN3kK6-46" value="" style="shape=tableRow;horizontal=0;startSize=0;swimlaneHead=0;swimlaneBody=0;fillColor=none;collapsible=0;dropTarget=0;points=[[0,0.5],[1,0.5]];portConstraint=eastwest;top=0;left=0;right=0;bottom=0;rounded=1;strokeColor=#909090;fontColor=#1A1A1A;" parent="X1LZYcvNkwWMeeYN3kK6-42" vertex="1">
          <mxGeometry y="60" width="89.47058823529414" height="30" as="geometry" />
        </mxCell>
        <mxCell id="X1LZYcvNkwWMeeYN3kK6-47" value="" style="shape=partialRectangle;connectable=0;fillColor=none;top=0;left=0;bottom=0;right=0;editable=1;overflow=hidden;rounded=1;strokeColor=#909090;fontColor=#1A1A1A;" parent="X1LZYcvNkwWMeeYN3kK6-46" vertex="1">
          <mxGeometry width="30" height="30" as="geometry">
            <mxRectangle width="30" height="30" as="alternateBounds" />
          </mxGeometry>
        </mxCell>
        <mxCell id="X1LZYcvNkwWMeeYN3kK6-48" value="reg" style="shape=partialRectangle;connectable=0;fillColor=none;top=0;left=0;bottom=0;right=0;align=left;spacingLeft=6;overflow=hidden;rounded=1;strokeColor=#909090;fontColor=#1A1A1A;" parent="X1LZYcvNkwWMeeYN3kK6-46" vertex="1">
          <mxGeometry x="30" width="59.470588235294144" height="30" as="geometry">
            <mxRectangle width="59.470588235294144" height="30" as="alternateBounds" />
          </mxGeometry>
        </mxCell>
        <mxCell id="X1LZYcvNkwWMeeYN3kK6-49" value="" style="shape=tableRow;horizontal=0;startSize=0;swimlaneHead=0;swimlaneBody=0;fillColor=none;collapsible=0;dropTarget=0;points=[[0,0.5],[1,0.5]];portConstraint=eastwest;top=0;left=0;right=0;bottom=0;rounded=1;strokeColor=#909090;fontColor=#1A1A1A;" parent="X1LZYcvNkwWMeeYN3kK6-42" vertex="1">
          <mxGeometry y="90" width="89.47058823529414" height="30" as="geometry" />
        </mxCell>
        <mxCell id="X1LZYcvNkwWMeeYN3kK6-50" value="FK" style="shape=partialRectangle;connectable=0;fillColor=none;top=0;left=0;bottom=0;right=0;editable=1;overflow=hidden;rounded=1;strokeColor=#909090;fontColor=#1A1A1A;" parent="X1LZYcvNkwWMeeYN3kK6-49" vertex="1">
          <mxGeometry width="30" height="30" as="geometry">
            <mxRectangle width="30" height="30" as="alternateBounds" />
          </mxGeometry>
        </mxCell>
        <mxCell id="X1LZYcvNkwWMeeYN3kK6-51" value="config" style="shape=partialRectangle;connectable=0;fillColor=none;top=0;left=0;bottom=0;right=0;align=left;spacingLeft=6;overflow=hidden;rounded=1;strokeColor=#909090;fontColor=#1A1A1A;" parent="X1LZYcvNkwWMeeYN3kK6-49" vertex="1">
          <mxGeometry x="30" width="59.470588235294144" height="30" as="geometry">
            <mxRectangle width="59.470588235294144" height="30" as="alternateBounds" />
          </mxGeometry>
        </mxCell>
        <mxCell id="X1LZYcvNkwWMeeYN3kK6-55" style="shape=tableRow;horizontal=0;startSize=0;swimlaneHead=0;swimlaneBody=0;fillColor=none;collapsible=0;dropTarget=0;points=[[0,0.5],[1,0.5]];portConstraint=eastwest;top=0;left=0;right=0;bottom=0;rounded=1;strokeColor=#909090;fontColor=#1A1A1A;" parent="X1LZYcvNkwWMeeYN3kK6-42" vertex="1">
          <mxGeometry y="120" width="89.47058823529414" height="30" as="geometry" />
        </mxCell>
        <mxCell id="X1LZYcvNkwWMeeYN3kK6-56" value="" style="shape=partialRectangle;connectable=0;fillColor=none;top=0;left=0;bottom=0;right=0;editable=1;overflow=hidden;rounded=1;strokeColor=#909090;fontColor=#1A1A1A;" parent="X1LZYcvNkwWMeeYN3kK6-55" vertex="1">
          <mxGeometry width="30" height="30" as="geometry">
            <mxRectangle width="30" height="30" as="alternateBounds" />
          </mxGeometry>
        </mxCell>
        <mxCell id="X1LZYcvNkwWMeeYN3kK6-57" value="type" style="shape=partialRectangle;connectable=0;fillColor=none;top=0;left=0;bottom=0;right=0;align=left;spacingLeft=6;overflow=hidden;rounded=1;strokeColor=#909090;fontColor=#1A1A1A;" parent="X1LZYcvNkwWMeeYN3kK6-55" vertex="1">
          <mxGeometry x="30" width="59.470588235294144" height="30" as="geometry">
            <mxRectangle width="59.470588235294144" height="30" as="alternateBounds" />
          </mxGeometry>
        </mxCell>
        <mxCell id="X1LZYcvNkwWMeeYN3kK6-58" value="Seatmap" style="shape=table;startSize=30;container=1;collapsible=1;childLayout=tableLayout;fixedRows=1;rowLines=0;fontStyle=1;align=center;resizeLast=1;rounded=1;fillColor=#F5AB50;strokeColor=#909090;fontColor=#1A1A1A;" parent="1" vertex="1">
          <mxGeometry x="476.5300000000001" y="631" width="120" height="90" as="geometry" />
        </mxCell>
        <mxCell id="X1LZYcvNkwWMeeYN3kK6-59" value="" style="shape=tableRow;horizontal=0;startSize=0;swimlaneHead=0;swimlaneBody=0;fillColor=none;collapsible=0;dropTarget=0;points=[[0,0.5],[1,0.5]];portConstraint=eastwest;top=0;left=0;right=0;bottom=1;rounded=1;strokeColor=#909090;fontColor=#1A1A1A;" parent="X1LZYcvNkwWMeeYN3kK6-58" vertex="1">
          <mxGeometry y="30" width="120" height="30" as="geometry" />
        </mxCell>
        <mxCell id="X1LZYcvNkwWMeeYN3kK6-60" value="PK" style="shape=partialRectangle;connectable=0;fillColor=none;top=0;left=0;bottom=0;right=0;fontStyle=1;overflow=hidden;rounded=1;strokeColor=#909090;fontColor=#1A1A1A;" parent="X1LZYcvNkwWMeeYN3kK6-59" vertex="1">
          <mxGeometry width="30" height="30" as="geometry">
            <mxRectangle width="30" height="30" as="alternateBounds" />
          </mxGeometry>
        </mxCell>
        <mxCell id="X1LZYcvNkwWMeeYN3kK6-61" value="config" style="shape=partialRectangle;connectable=0;fillColor=none;top=0;left=0;bottom=0;right=0;align=left;spacingLeft=6;fontStyle=5;overflow=hidden;rounded=1;strokeColor=#909090;fontColor=#1A1A1A;" parent="X1LZYcvNkwWMeeYN3kK6-59" vertex="1">
          <mxGeometry x="30" width="90" height="30" as="geometry">
            <mxRectangle width="90" height="30" as="alternateBounds" />
          </mxGeometry>
        </mxCell>
        <mxCell id="X1LZYcvNkwWMeeYN3kK6-62" value="" style="shape=tableRow;horizontal=0;startSize=0;swimlaneHead=0;swimlaneBody=0;fillColor=none;collapsible=0;dropTarget=0;points=[[0,0.5],[1,0.5]];portConstraint=eastwest;top=0;left=0;right=0;bottom=0;rounded=1;strokeColor=#909090;fontColor=#1A1A1A;" parent="X1LZYcvNkwWMeeYN3kK6-58" vertex="1">
          <mxGeometry y="60" width="120" height="30" as="geometry" />
        </mxCell>
        <mxCell id="X1LZYcvNkwWMeeYN3kK6-63" value="" style="shape=partialRectangle;connectable=0;fillColor=none;top=0;left=0;bottom=0;right=0;editable=1;overflow=hidden;rounded=1;strokeColor=#909090;fontColor=#1A1A1A;" parent="X1LZYcvNkwWMeeYN3kK6-62" vertex="1">
          <mxGeometry width="30" height="30" as="geometry">
            <mxRectangle width="30" height="30" as="alternateBounds" />
          </mxGeometry>
        </mxCell>
        <mxCell id="X1LZYcvNkwWMeeYN3kK6-64" value="seatmap_file" style="shape=partialRectangle;connectable=0;fillColor=none;top=0;left=0;bottom=0;right=0;align=left;spacingLeft=6;overflow=hidden;rounded=1;strokeColor=#909090;fontColor=#1A1A1A;" parent="X1LZYcvNkwWMeeYN3kK6-62" vertex="1">
          <mxGeometry x="30" width="90" height="30" as="geometry">
            <mxRectangle width="90" height="30" as="alternateBounds" />
          </mxGeometry>
        </mxCell>
        <mxCell id="cI1EdFas20C-Gkk_I_3K-14" value="Booking" style="shape=table;startSize=30;container=1;collapsible=1;childLayout=tableLayout;fixedRows=1;rowLines=0;fontStyle=1;align=center;resizeLast=1;rounded=1;fillColor=#F5AB50;strokeColor=#909090;fontColor=#1A1A1A;" parent="1" vertex="1">
          <mxGeometry x="859" y="151" width="153" height="510" as="geometry">
            <mxRectangle x="360" y="570" width="70" height="30" as="alternateBounds" />
          </mxGeometry>
        </mxCell>
        <mxCell id="cI1EdFas20C-Gkk_I_3K-15" value="" style="shape=tableRow;horizontal=0;startSize=0;swimlaneHead=0;swimlaneBody=0;fillColor=none;collapsible=0;dropTarget=0;points=[[0,0.5],[1,0.5]];portConstraint=eastwest;top=0;left=0;right=0;bottom=1;rounded=1;strokeColor=#909090;fontColor=#1A1A1A;" parent="cI1EdFas20C-Gkk_I_3K-14" vertex="1">
          <mxGeometry y="30" width="153" height="30" as="geometry" />
        </mxCell>
        <mxCell id="cI1EdFas20C-Gkk_I_3K-16" value="PK, FK" style="shape=partialRectangle;connectable=0;fillColor=none;top=0;left=0;bottom=0;right=0;fontStyle=1;overflow=hidden;rounded=1;strokeColor=#909090;fontColor=#1A1A1A;" parent="cI1EdFas20C-Gkk_I_3K-15" vertex="1">
          <mxGeometry width="50" height="30" as="geometry">
            <mxRectangle width="50" height="30" as="alternateBounds" />
          </mxGeometry>
        </mxCell>
        <mxCell id="cI1EdFas20C-Gkk_I_3K-17" value="id " style="shape=partialRectangle;connectable=0;fillColor=none;top=0;left=0;bottom=0;right=0;align=left;spacingLeft=6;fontStyle=5;overflow=hidden;rounded=1;strokeColor=#909090;fontColor=#1A1A1A;" parent="cI1EdFas20C-Gkk_I_3K-15" vertex="1">
          <mxGeometry x="50" width="103" height="30" as="geometry">
            <mxRectangle width="103" height="30" as="alternateBounds" />
          </mxGeometry>
        </mxCell>
        <mxCell id="itkVettDfMEEk3Mektog-1" style="shape=tableRow;horizontal=0;startSize=0;swimlaneHead=0;swimlaneBody=0;fillColor=none;collapsible=0;dropTarget=0;points=[[0,0.5],[1,0.5]];portConstraint=eastwest;top=0;left=0;right=0;bottom=0;rounded=1;strokeColor=#909090;fontColor=#1A1A1A;" parent="cI1EdFas20C-Gkk_I_3K-14" vertex="1">
          <mxGeometry y="60" width="153" height="30" as="geometry" />
        </mxCell>
        <mxCell id="itkVettDfMEEk3Mektog-2" value="Unique" style="shape=partialRectangle;connectable=0;fillColor=none;top=0;left=0;bottom=0;right=0;editable=1;overflow=hidden;rounded=1;strokeColor=#909090;fontColor=#1A1A1A;fontStyle=1" parent="itkVettDfMEEk3Mektog-1" vertex="1">
          <mxGeometry width="50" height="30" as="geometry">
            <mxRectangle width="50" height="30" as="alternateBounds" />
          </mxGeometry>
        </mxCell>
        <mxCell id="itkVettDfMEEk3Mektog-3" value="PNR varchar(6)" style="shape=partialRectangle;connectable=0;fillColor=none;top=0;left=0;bottom=0;right=0;align=left;spacingLeft=6;overflow=hidden;rounded=1;strokeColor=#909090;fontColor=#1A1A1A;shadow=0;sketch=0;labelBorderColor=none;labelBackgroundColor=none;fontStyle=1" parent="itkVettDfMEEk3Mektog-1" vertex="1">
          <mxGeometry x="50" width="103" height="30" as="geometry">
            <mxRectangle width="103" height="30" as="alternateBounds" />
          </mxGeometry>
        </mxCell>
        <mxCell id="cI1EdFas20C-Gkk_I_3K-18" value="" style="shape=tableRow;horizontal=0;startSize=0;swimlaneHead=0;swimlaneBody=0;fillColor=none;collapsible=0;dropTarget=0;points=[[0,0.5],[1,0.5]];portConstraint=eastwest;top=0;left=0;right=0;bottom=0;rounded=1;strokeColor=#909090;fontColor=#1A1A1A;" parent="cI1EdFas20C-Gkk_I_3K-14" vertex="1">
          <mxGeometry y="90" width="153" height="30" as="geometry" />
        </mxCell>
        <mxCell id="cI1EdFas20C-Gkk_I_3K-19" value="" style="shape=partialRectangle;connectable=0;fillColor=none;top=0;left=0;bottom=0;right=0;editable=1;overflow=hidden;rounded=1;strokeColor=#909090;fontColor=#1A1A1A;" parent="cI1EdFas20C-Gkk_I_3K-18" vertex="1">
          <mxGeometry width="50" height="30" as="geometry">
            <mxRectangle width="50" height="30" as="alternateBounds" />
          </mxGeometry>
        </mxCell>
        <mxCell id="cI1EdFas20C-Gkk_I_3K-20" value="book_date" style="shape=partialRectangle;connectable=0;fillColor=none;top=0;left=0;bottom=0;right=0;align=left;spacingLeft=6;overflow=hidden;rounded=1;strokeColor=#909090;fontColor=#1A1A1A;shadow=0;sketch=0;labelBorderColor=none;labelBackgroundColor=none;fontStyle=0" parent="cI1EdFas20C-Gkk_I_3K-18" vertex="1">
          <mxGeometry x="50" width="103" height="30" as="geometry">
            <mxRectangle width="103" height="30" as="alternateBounds" />
          </mxGeometry>
        </mxCell>
        <mxCell id="cI1EdFas20C-Gkk_I_3K-21" value="" style="shape=tableRow;horizontal=0;startSize=0;swimlaneHead=0;swimlaneBody=0;fillColor=none;collapsible=0;dropTarget=0;points=[[0,0.5],[1,0.5]];portConstraint=eastwest;top=0;left=0;right=0;bottom=0;rounded=1;strokeColor=#909090;fontColor=#1A1A1A;" parent="cI1EdFas20C-Gkk_I_3K-14" vertex="1">
          <mxGeometry y="120" width="153" height="30" as="geometry" />
        </mxCell>
        <mxCell id="cI1EdFas20C-Gkk_I_3K-22" value="FK" style="shape=partialRectangle;connectable=0;fillColor=none;top=0;left=0;bottom=0;right=0;editable=1;overflow=hidden;rounded=1;strokeColor=#909090;fontColor=#1A1A1A;" parent="cI1EdFas20C-Gkk_I_3K-21" vertex="1">
          <mxGeometry width="50" height="30" as="geometry">
            <mxRectangle width="50" height="30" as="alternateBounds" />
          </mxGeometry>
        </mxCell>
        <mxCell id="cI1EdFas20C-Gkk_I_3K-23" value="flight_id" style="shape=partialRectangle;connectable=0;fillColor=#d5e8d4;top=0;left=0;bottom=0;right=0;align=left;spacingLeft=6;overflow=hidden;fontStyle=1;strokeColor=#82b366;rounded=1;shadow=0;sketch=0;labelBorderColor=none;labelBackgroundColor=none;" parent="cI1EdFas20C-Gkk_I_3K-21" vertex="1">
          <mxGeometry x="50" width="103" height="30" as="geometry">
            <mxRectangle width="103" height="30" as="alternateBounds" />
          </mxGeometry>
        </mxCell>
        <mxCell id="_8KCfiRGIq8IKMVJ5JDC-41" style="shape=tableRow;horizontal=0;startSize=0;swimlaneHead=0;swimlaneBody=0;fillColor=none;collapsible=0;dropTarget=0;points=[[0,0.5],[1,0.5]];portConstraint=eastwest;top=0;left=0;right=0;bottom=0;rounded=1;strokeColor=#909090;fontColor=#1A1A1A;" parent="cI1EdFas20C-Gkk_I_3K-14" vertex="1">
          <mxGeometry y="150" width="153" height="30" as="geometry" />
        </mxCell>
        <mxCell id="_8KCfiRGIq8IKMVJ5JDC-42" value="FK" style="shape=partialRectangle;connectable=0;fillColor=none;top=0;left=0;bottom=0;right=0;editable=1;overflow=hidden;rounded=1;strokeColor=#909090;fontColor=#1A1A1A;" parent="_8KCfiRGIq8IKMVJ5JDC-41" vertex="1">
          <mxGeometry width="50" height="30" as="geometry">
            <mxRectangle width="50" height="30" as="alternateBounds" />
          </mxGeometry>
        </mxCell>
        <mxCell id="_8KCfiRGIq8IKMVJ5JDC-43" value="mem_id" style="shape=partialRectangle;connectable=0;fillColor=none;top=0;left=0;bottom=0;right=0;align=left;spacingLeft=6;overflow=hidden;rounded=1;strokeColor=#909090;fontColor=#1A1A1A;shadow=0;sketch=0;labelBorderColor=none;labelBackgroundColor=none;fontStyle=0" parent="_8KCfiRGIq8IKMVJ5JDC-41" vertex="1">
          <mxGeometry x="50" width="103" height="30" as="geometry">
            <mxRectangle width="103" height="30" as="alternateBounds" />
          </mxGeometry>
        </mxCell>
        <mxCell id="cI1EdFas20C-Gkk_I_3K-33" style="shape=tableRow;horizontal=0;startSize=0;swimlaneHead=0;swimlaneBody=0;fillColor=none;collapsible=0;dropTarget=0;points=[[0,0.5],[1,0.5]];portConstraint=eastwest;top=0;left=0;right=0;bottom=0;rounded=1;strokeColor=#909090;fontColor=#1A1A1A;" parent="cI1EdFas20C-Gkk_I_3K-14" vertex="1">
          <mxGeometry y="180" width="153" height="30" as="geometry" />
        </mxCell>
        <mxCell id="cI1EdFas20C-Gkk_I_3K-34" style="shape=partialRectangle;connectable=0;fillColor=none;top=0;left=0;bottom=0;right=0;editable=1;overflow=hidden;rounded=1;strokeColor=#909090;fontColor=#1A1A1A;" parent="cI1EdFas20C-Gkk_I_3K-33" vertex="1">
          <mxGeometry width="50" height="30" as="geometry">
            <mxRectangle width="50" height="30" as="alternateBounds" />
          </mxGeometry>
        </mxCell>
        <mxCell id="cI1EdFas20C-Gkk_I_3K-35" value="title" style="shape=partialRectangle;connectable=0;fillColor=none;top=0;left=0;bottom=0;right=0;align=left;spacingLeft=6;overflow=hidden;rounded=1;strokeColor=#909090;fontColor=#1A1A1A;shadow=0;sketch=0;labelBorderColor=none;labelBackgroundColor=none;fontStyle=0" parent="cI1EdFas20C-Gkk_I_3K-33" vertex="1">
          <mxGeometry x="50" width="103" height="30" as="geometry">
            <mxRectangle width="103" height="30" as="alternateBounds" />
          </mxGeometry>
        </mxCell>
        <mxCell id="4R2mOq7rzEsoQCD4yWHe-31" style="shape=tableRow;horizontal=0;startSize=0;swimlaneHead=0;swimlaneBody=0;fillColor=none;collapsible=0;dropTarget=0;points=[[0,0.5],[1,0.5]];portConstraint=eastwest;top=0;left=0;right=0;bottom=0;rounded=1;strokeColor=#909090;fontColor=#1A1A1A;" parent="cI1EdFas20C-Gkk_I_3K-14" vertex="1">
          <mxGeometry y="210" width="153" height="30" as="geometry" />
        </mxCell>
        <mxCell id="4R2mOq7rzEsoQCD4yWHe-32" style="shape=partialRectangle;connectable=0;fillColor=none;top=0;left=0;bottom=0;right=0;editable=1;overflow=hidden;rounded=1;strokeColor=#909090;fontColor=#1A1A1A;" parent="4R2mOq7rzEsoQCD4yWHe-31" vertex="1">
          <mxGeometry width="50" height="30" as="geometry">
            <mxRectangle width="50" height="30" as="alternateBounds" />
          </mxGeometry>
        </mxCell>
        <mxCell id="4R2mOq7rzEsoQCD4yWHe-33" value="first_name" style="shape=partialRectangle;connectable=0;fillColor=none;top=0;left=0;bottom=0;right=0;align=left;spacingLeft=6;overflow=hidden;rounded=1;strokeColor=#909090;fontColor=#1A1A1A;shadow=0;sketch=0;labelBorderColor=none;labelBackgroundColor=none;fontStyle=0" parent="4R2mOq7rzEsoQCD4yWHe-31" vertex="1">
          <mxGeometry x="50" width="103" height="30" as="geometry">
            <mxRectangle width="103" height="30" as="alternateBounds" />
          </mxGeometry>
        </mxCell>
        <mxCell id="itkVettDfMEEk3Mektog-4" style="shape=tableRow;horizontal=0;startSize=0;swimlaneHead=0;swimlaneBody=0;fillColor=none;collapsible=0;dropTarget=0;points=[[0,0.5],[1,0.5]];portConstraint=eastwest;top=0;left=0;right=0;bottom=0;rounded=1;strokeColor=#909090;fontColor=#1A1A1A;" parent="cI1EdFas20C-Gkk_I_3K-14" vertex="1">
          <mxGeometry y="240" width="153" height="30" as="geometry" />
        </mxCell>
        <mxCell id="itkVettDfMEEk3Mektog-5" style="shape=partialRectangle;connectable=0;fillColor=none;top=0;left=0;bottom=0;right=0;editable=1;overflow=hidden;rounded=1;strokeColor=#909090;fontColor=#1A1A1A;" parent="itkVettDfMEEk3Mektog-4" vertex="1">
          <mxGeometry width="50" height="30" as="geometry">
            <mxRectangle width="50" height="30" as="alternateBounds" />
          </mxGeometry>
        </mxCell>
        <mxCell id="itkVettDfMEEk3Mektog-6" value="last_name" style="shape=partialRectangle;connectable=0;fillColor=none;top=0;left=0;bottom=0;right=0;align=left;spacingLeft=6;overflow=hidden;rounded=1;strokeColor=#909090;fontColor=#1A1A1A;shadow=0;sketch=0;labelBorderColor=none;labelBackgroundColor=none;fontStyle=0" parent="itkVettDfMEEk3Mektog-4" vertex="1">
          <mxGeometry x="50" width="103" height="30" as="geometry">
            <mxRectangle width="103" height="30" as="alternateBounds" />
          </mxGeometry>
        </mxCell>
        <mxCell id="itkVettDfMEEk3Mektog-7" style="shape=tableRow;horizontal=0;startSize=0;swimlaneHead=0;swimlaneBody=0;fillColor=none;collapsible=0;dropTarget=0;points=[[0,0.5],[1,0.5]];portConstraint=eastwest;top=0;left=0;right=0;bottom=0;rounded=1;strokeColor=#909090;fontColor=#1A1A1A;" parent="cI1EdFas20C-Gkk_I_3K-14" vertex="1">
          <mxGeometry y="270" width="153" height="30" as="geometry" />
        </mxCell>
        <mxCell id="itkVettDfMEEk3Mektog-8" style="shape=partialRectangle;connectable=0;fillColor=none;top=0;left=0;bottom=0;right=0;editable=1;overflow=hidden;rounded=1;strokeColor=#909090;fontColor=#1A1A1A;" parent="itkVettDfMEEk3Mektog-7" vertex="1">
          <mxGeometry width="50" height="30" as="geometry">
            <mxRectangle width="50" height="30" as="alternateBounds" />
          </mxGeometry>
        </mxCell>
        <mxCell id="itkVettDfMEEk3Mektog-9" value="gender" style="shape=partialRectangle;connectable=0;fillColor=none;top=0;left=0;bottom=0;right=0;align=left;spacingLeft=6;overflow=hidden;rounded=1;strokeColor=#909090;fontColor=#1A1A1A;shadow=0;sketch=0;labelBorderColor=none;labelBackgroundColor=none;fontStyle=0" parent="itkVettDfMEEk3Mektog-7" vertex="1">
          <mxGeometry x="50" width="103" height="30" as="geometry">
            <mxRectangle width="103" height="30" as="alternateBounds" />
          </mxGeometry>
        </mxCell>
        <mxCell id="itkVettDfMEEk3Mektog-10" style="shape=tableRow;horizontal=0;startSize=0;swimlaneHead=0;swimlaneBody=0;fillColor=none;collapsible=0;dropTarget=0;points=[[0,0.5],[1,0.5]];portConstraint=eastwest;top=0;left=0;right=0;bottom=0;rounded=1;strokeColor=#909090;fontColor=#1A1A1A;fontStyle=1" parent="cI1EdFas20C-Gkk_I_3K-14" vertex="1">
          <mxGeometry y="300" width="153" height="30" as="geometry" />
        </mxCell>
        <mxCell id="itkVettDfMEEk3Mektog-11" value="FK" style="shape=partialRectangle;connectable=0;fillColor=none;top=0;left=0;bottom=0;right=0;editable=1;overflow=hidden;rounded=1;strokeColor=#909090;fontColor=#1A1A1A;" parent="itkVettDfMEEk3Mektog-10" vertex="1">
          <mxGeometry width="50" height="30" as="geometry">
            <mxRectangle width="50" height="30" as="alternateBounds" />
          </mxGeometry>
        </mxCell>
        <mxCell id="itkVettDfMEEk3Mektog-12" value="infant_id" style="shape=partialRectangle;connectable=0;fillColor=none;top=0;left=0;bottom=0;right=0;align=left;spacingLeft=6;overflow=hidden;rounded=1;strokeColor=#909090;fontColor=#1A1A1A;shadow=0;sketch=0;labelBorderColor=none;labelBackgroundColor=none;fontStyle=0" parent="itkVettDfMEEk3Mektog-10" vertex="1">
          <mxGeometry x="50" width="103" height="30" as="geometry">
            <mxRectangle width="103" height="30" as="alternateBounds" />
          </mxGeometry>
        </mxCell>
        <mxCell id="itkVettDfMEEk3Mektog-32" style="shape=tableRow;horizontal=0;startSize=0;swimlaneHead=0;swimlaneBody=0;fillColor=none;collapsible=0;dropTarget=0;points=[[0,0.5],[1,0.5]];portConstraint=eastwest;top=0;left=0;right=0;bottom=0;rounded=1;strokeColor=#909090;fontColor=#1A1A1A;" parent="cI1EdFas20C-Gkk_I_3K-14" vertex="1">
          <mxGeometry y="330" width="153" height="30" as="geometry" />
        </mxCell>
        <mxCell id="itkVettDfMEEk3Mektog-33" style="shape=partialRectangle;connectable=0;fillColor=none;top=0;left=0;bottom=0;right=0;editable=1;overflow=hidden;rounded=1;strokeColor=#909090;fontColor=#1A1A1A;" parent="itkVettDfMEEk3Mektog-32" vertex="1">
          <mxGeometry width="50" height="30" as="geometry">
            <mxRectangle width="50" height="30" as="alternateBounds" />
          </mxGeometry>
        </mxCell>
        <mxCell id="itkVettDfMEEk3Mektog-34" value="seat_no" style="shape=partialRectangle;connectable=0;fillColor=none;top=0;left=0;bottom=0;right=0;align=left;spacingLeft=6;overflow=hidden;rounded=1;strokeColor=#909090;fontColor=#1A1A1A;shadow=0;sketch=0;labelBorderColor=none;labelBackgroundColor=none;fontStyle=0" parent="itkVettDfMEEk3Mektog-32" vertex="1">
          <mxGeometry x="50" width="103" height="30" as="geometry">
            <mxRectangle width="103" height="30" as="alternateBounds" />
          </mxGeometry>
        </mxCell>
        <mxCell id="itkVettDfMEEk3Mektog-35" style="shape=tableRow;horizontal=0;startSize=0;swimlaneHead=0;swimlaneBody=0;fillColor=none;collapsible=0;dropTarget=0;points=[[0,0.5],[1,0.5]];portConstraint=eastwest;top=0;left=0;right=0;bottom=0;rounded=1;strokeColor=#909090;fontColor=#1A1A1A;" parent="cI1EdFas20C-Gkk_I_3K-14" vertex="1">
          <mxGeometry y="360" width="153" height="30" as="geometry" />
        </mxCell>
        <mxCell id="itkVettDfMEEk3Mektog-36" style="shape=partialRectangle;connectable=0;fillColor=none;top=0;left=0;bottom=0;right=0;editable=1;overflow=hidden;rounded=1;strokeColor=#909090;fontColor=#1A1A1A;" parent="itkVettDfMEEk3Mektog-35" vertex="1">
          <mxGeometry width="50" height="30" as="geometry">
            <mxRectangle width="50" height="30" as="alternateBounds" />
          </mxGeometry>
        </mxCell>
        <mxCell id="itkVettDfMEEk3Mektog-37" value="boarding_pass" style="shape=partialRectangle;connectable=0;fillColor=none;top=0;left=0;bottom=0;right=0;align=left;spacingLeft=6;overflow=hidden;rounded=1;strokeColor=#909090;fontColor=#1A1A1A;shadow=0;sketch=0;labelBorderColor=none;labelBackgroundColor=none;fontStyle=0" parent="itkVettDfMEEk3Mektog-35" vertex="1">
          <mxGeometry x="50" width="103" height="30" as="geometry">
            <mxRectangle width="103" height="30" as="alternateBounds" />
          </mxGeometry>
        </mxCell>
        <mxCell id="itkVettDfMEEk3Mektog-13" style="shape=tableRow;horizontal=0;startSize=0;swimlaneHead=0;swimlaneBody=0;fillColor=none;collapsible=0;dropTarget=0;points=[[0,0.5],[1,0.5]];portConstraint=eastwest;top=0;left=0;right=0;bottom=0;rounded=1;strokeColor=#909090;fontColor=#1A1A1A;" parent="cI1EdFas20C-Gkk_I_3K-14" vertex="1">
          <mxGeometry y="390" width="153" height="30" as="geometry" />
        </mxCell>
        <mxCell id="itkVettDfMEEk3Mektog-14" style="shape=partialRectangle;connectable=0;fillColor=none;top=0;left=0;bottom=0;right=0;editable=1;overflow=hidden;rounded=1;strokeColor=#909090;fontColor=#1A1A1A;" parent="itkVettDfMEEk3Mektog-13" vertex="1">
          <mxGeometry width="50" height="30" as="geometry">
            <mxRectangle width="50" height="30" as="alternateBounds" />
          </mxGeometry>
        </mxCell>
        <mxCell id="itkVettDfMEEk3Mektog-15" value="status" style="shape=partialRectangle;connectable=0;fillColor=none;top=0;left=0;bottom=0;right=0;align=left;spacingLeft=6;overflow=hidden;rounded=1;strokeColor=#909090;fontColor=#1A1A1A;shadow=0;sketch=0;labelBorderColor=none;labelBackgroundColor=none;fontStyle=0" parent="itkVettDfMEEk3Mektog-13" vertex="1">
          <mxGeometry x="50" width="103" height="30" as="geometry">
            <mxRectangle width="103" height="30" as="alternateBounds" />
          </mxGeometry>
        </mxCell>
        <mxCell id="itkVettDfMEEk3Mektog-16" style="shape=tableRow;horizontal=0;startSize=0;swimlaneHead=0;swimlaneBody=0;fillColor=none;collapsible=0;dropTarget=0;points=[[0,0.5],[1,0.5]];portConstraint=eastwest;top=0;left=0;right=0;bottom=0;rounded=1;strokeColor=#909090;fontColor=#1A1A1A;" parent="cI1EdFas20C-Gkk_I_3K-14" vertex="1">
          <mxGeometry y="420" width="153" height="30" as="geometry" />
        </mxCell>
        <mxCell id="itkVettDfMEEk3Mektog-17" style="shape=partialRectangle;connectable=0;fillColor=none;top=0;left=0;bottom=0;right=0;editable=1;overflow=hidden;rounded=1;strokeColor=#909090;fontColor=#1A1A1A;" parent="itkVettDfMEEk3Mektog-16" vertex="1">
          <mxGeometry width="50" height="30" as="geometry">
            <mxRectangle width="50" height="30" as="alternateBounds" />
          </mxGeometry>
        </mxCell>
        <mxCell id="itkVettDfMEEk3Mektog-18" value="mobile" style="shape=partialRectangle;connectable=0;fillColor=none;top=0;left=0;bottom=0;right=0;align=left;spacingLeft=6;overflow=hidden;rounded=1;strokeColor=#909090;fontColor=#1A1A1A;shadow=0;sketch=0;labelBorderColor=none;labelBackgroundColor=none;fontStyle=0" parent="itkVettDfMEEk3Mektog-16" vertex="1">
          <mxGeometry x="50" width="103" height="30" as="geometry">
            <mxRectangle width="103" height="30" as="alternateBounds" />
          </mxGeometry>
        </mxCell>
        <mxCell id="itkVettDfMEEk3Mektog-19" style="shape=tableRow;horizontal=0;startSize=0;swimlaneHead=0;swimlaneBody=0;fillColor=none;collapsible=0;dropTarget=0;points=[[0,0.5],[1,0.5]];portConstraint=eastwest;top=0;left=0;right=0;bottom=0;rounded=1;strokeColor=#909090;fontColor=#1A1A1A;" parent="cI1EdFas20C-Gkk_I_3K-14" vertex="1">
          <mxGeometry y="450" width="153" height="30" as="geometry" />
        </mxCell>
        <mxCell id="itkVettDfMEEk3Mektog-20" style="shape=partialRectangle;connectable=0;fillColor=none;top=0;left=0;bottom=0;right=0;editable=1;overflow=hidden;rounded=1;strokeColor=#909090;fontColor=#1A1A1A;" parent="itkVettDfMEEk3Mektog-19" vertex="1">
          <mxGeometry width="50" height="30" as="geometry">
            <mxRectangle width="50" height="30" as="alternateBounds" />
          </mxGeometry>
        </mxCell>
        <mxCell id="itkVettDfMEEk3Mektog-21" value="email" style="shape=partialRectangle;connectable=0;fillColor=none;top=0;left=0;bottom=0;right=0;align=left;spacingLeft=6;overflow=hidden;rounded=1;strokeColor=#909090;fontColor=#1A1A1A;shadow=0;sketch=0;labelBorderColor=none;labelBackgroundColor=none;fontStyle=0" parent="itkVettDfMEEk3Mektog-19" vertex="1">
          <mxGeometry x="50" width="103" height="30" as="geometry">
            <mxRectangle width="103" height="30" as="alternateBounds" />
          </mxGeometry>
        </mxCell>
        <mxCell id="itkVettDfMEEk3Mektog-28" style="shape=tableRow;horizontal=0;startSize=0;swimlaneHead=0;swimlaneBody=0;fillColor=none;collapsible=0;dropTarget=0;points=[[0,0.5],[1,0.5]];portConstraint=eastwest;top=0;left=0;right=0;bottom=0;rounded=1;strokeColor=#909090;fontColor=#1A1A1A;" parent="cI1EdFas20C-Gkk_I_3K-14" vertex="1">
          <mxGeometry y="480" width="153" height="30" as="geometry" />
        </mxCell>
        <mxCell id="itkVettDfMEEk3Mektog-29" style="shape=partialRectangle;connectable=0;fillColor=none;top=0;left=0;bottom=0;right=0;editable=1;overflow=hidden;rounded=1;strokeColor=#909090;fontColor=#1A1A1A;" parent="itkVettDfMEEk3Mektog-28" vertex="1">
          <mxGeometry width="50" height="30" as="geometry">
            <mxRectangle width="50" height="30" as="alternateBounds" />
          </mxGeometry>
        </mxCell>
        <mxCell id="itkVettDfMEEk3Mektog-30" value="price" style="shape=partialRectangle;connectable=0;fillColor=none;top=0;left=0;bottom=0;right=0;align=left;spacingLeft=6;overflow=hidden;rounded=1;strokeColor=#909090;fontColor=#1A1A1A;shadow=0;sketch=0;labelBorderColor=none;labelBackgroundColor=none;fontStyle=0" parent="itkVettDfMEEk3Mektog-28" vertex="1">
          <mxGeometry x="50" width="103" height="30" as="geometry">
            <mxRectangle width="103" height="30" as="alternateBounds" />
          </mxGeometry>
        </mxCell>
        <mxCell id="cI1EdFas20C-Gkk_I_3K-38" value="Flight" style="shape=table;startSize=30;container=1;collapsible=1;childLayout=tableLayout;fixedRows=1;rowLines=0;fontStyle=1;align=center;resizeLast=1;rounded=1;fillColor=#F5AB50;strokeColor=#909090;fontColor=#1A1A1A;" parent="1" vertex="1">
          <mxGeometry x="647.53" y="391" width="165" height="330" as="geometry" />
        </mxCell>
        <mxCell id="cI1EdFas20C-Gkk_I_3K-42" value="" style="shape=tableRow;horizontal=0;startSize=0;swimlaneHead=0;swimlaneBody=0;fillColor=none;collapsible=0;dropTarget=0;points=[[0,0.5],[1,0.5]];portConstraint=eastwest;top=0;left=0;right=0;bottom=1;rounded=1;strokeColor=#909090;fontColor=#1A1A1A;" parent="cI1EdFas20C-Gkk_I_3K-38" vertex="1">
          <mxGeometry y="30" width="165" height="30" as="geometry" />
        </mxCell>
        <mxCell id="cI1EdFas20C-Gkk_I_3K-43" value="PK,FK" style="shape=partialRectangle;connectable=0;fillColor=none;top=0;left=0;bottom=0;right=0;fontStyle=1;overflow=hidden;rounded=1;strokeColor=#909090;fontColor=#1A1A1A;" parent="cI1EdFas20C-Gkk_I_3K-42" vertex="1">
          <mxGeometry width="53.75" height="30" as="geometry">
            <mxRectangle width="53.75" height="30" as="alternateBounds" />
          </mxGeometry>
        </mxCell>
        <mxCell id="cI1EdFas20C-Gkk_I_3K-44" value="id" style="shape=partialRectangle;connectable=0;fillColor=none;top=0;left=0;bottom=0;right=0;align=left;spacingLeft=6;fontStyle=5;overflow=hidden;rounded=1;strokeColor=#909090;fontColor=#1A1A1A;" parent="cI1EdFas20C-Gkk_I_3K-42" vertex="1">
          <mxGeometry x="53.75" width="111.25" height="30" as="geometry">
            <mxRectangle width="111.25" height="30" as="alternateBounds" />
          </mxGeometry>
        </mxCell>
        <mxCell id="_8KCfiRGIq8IKMVJ5JDC-1" style="shape=tableRow;horizontal=0;startSize=0;swimlaneHead=0;swimlaneBody=0;fillColor=none;collapsible=0;dropTarget=0;points=[[0,0.5],[1,0.5]];portConstraint=eastwest;top=0;left=0;right=0;bottom=0;rounded=1;strokeColor=#909090;fontColor=#1A1A1A;" parent="cI1EdFas20C-Gkk_I_3K-38" vertex="1">
          <mxGeometry y="60" width="165" height="30" as="geometry" />
        </mxCell>
        <mxCell id="_8KCfiRGIq8IKMVJ5JDC-2" value="Unique" style="shape=partialRectangle;connectable=0;fillColor=#dae8fc;top=0;left=0;bottom=0;right=0;editable=1;overflow=hidden;rounded=1;strokeColor=#6c8ebf;rowspan=2;colspan=1;fontStyle=1;gradientColor=none;shadow=0;" parent="_8KCfiRGIq8IKMVJ5JDC-1" vertex="1">
          <mxGeometry width="53.75" height="60" as="geometry">
            <mxRectangle width="53.75" height="30" as="alternateBounds" />
          </mxGeometry>
        </mxCell>
        <mxCell id="_8KCfiRGIq8IKMVJ5JDC-3" value="flight_number" style="shape=partialRectangle;connectable=0;fillColor=#dae8fc;top=0;left=0;bottom=0;right=0;align=left;spacingLeft=6;overflow=hidden;rounded=1;strokeColor=#6c8ebf;fontStyle=1;labelBorderColor=none;labelBackgroundColor=none;" parent="_8KCfiRGIq8IKMVJ5JDC-1" vertex="1">
          <mxGeometry x="53.75" width="111.25" height="30" as="geometry">
            <mxRectangle width="111.25" height="30" as="alternateBounds" />
          </mxGeometry>
        </mxCell>
        <mxCell id="_8KCfiRGIq8IKMVJ5JDC-5" style="shape=tableRow;horizontal=0;startSize=0;swimlaneHead=0;swimlaneBody=0;fillColor=none;collapsible=0;dropTarget=0;points=[[0,0.5],[1,0.5]];portConstraint=eastwest;top=0;left=0;right=0;bottom=0;rounded=1;strokeColor=#909090;fontColor=#1A1A1A;" parent="cI1EdFas20C-Gkk_I_3K-38" vertex="1">
          <mxGeometry y="90" width="165" height="30" as="geometry" />
        </mxCell>
        <mxCell id="_8KCfiRGIq8IKMVJ5JDC-6" style="shape=partialRectangle;connectable=0;fillColor=none;top=0;left=0;bottom=0;right=0;editable=1;overflow=hidden;rounded=1;strokeColor=#909090;fontColor=#1A1A1A;" parent="_8KCfiRGIq8IKMVJ5JDC-5" vertex="1" visible="0">
          <mxGeometry width="53.75" height="30" as="geometry">
            <mxRectangle width="53.75" height="30" as="alternateBounds" />
          </mxGeometry>
        </mxCell>
        <mxCell id="_8KCfiRGIq8IKMVJ5JDC-7" value="date" style="shape=partialRectangle;connectable=0;fillColor=#dae8fc;top=0;left=0;bottom=0;right=0;align=left;spacingLeft=6;overflow=hidden;rounded=1;strokeColor=#6c8ebf;fontStyle=1" parent="_8KCfiRGIq8IKMVJ5JDC-5" vertex="1">
          <mxGeometry x="53.75" width="111.25" height="30" as="geometry">
            <mxRectangle width="111.25" height="30" as="alternateBounds" />
          </mxGeometry>
        </mxCell>
        <mxCell id="cI1EdFas20C-Gkk_I_3K-45" value="" style="shape=tableRow;horizontal=0;startSize=0;swimlaneHead=0;swimlaneBody=0;fillColor=none;collapsible=0;dropTarget=0;points=[[0,0.5],[1,0.5]];portConstraint=eastwest;top=0;left=0;right=0;bottom=0;rounded=1;strokeColor=#909090;fontColor=#1A1A1A;" parent="cI1EdFas20C-Gkk_I_3K-38" vertex="1">
          <mxGeometry y="120" width="165" height="30" as="geometry" />
        </mxCell>
        <mxCell id="cI1EdFas20C-Gkk_I_3K-46" value="" style="shape=partialRectangle;connectable=0;fillColor=none;top=0;left=0;bottom=0;right=0;editable=1;overflow=hidden;rounded=1;strokeColor=#909090;fontColor=#1A1A1A;" parent="cI1EdFas20C-Gkk_I_3K-45" vertex="1">
          <mxGeometry width="53.75" height="30" as="geometry">
            <mxRectangle width="53.75" height="30" as="alternateBounds" />
          </mxGeometry>
        </mxCell>
        <mxCell id="cI1EdFas20C-Gkk_I_3K-47" value="ETD" style="shape=partialRectangle;connectable=0;fillColor=none;top=0;left=0;bottom=0;right=0;align=left;spacingLeft=6;overflow=hidden;rounded=1;strokeColor=#909090;fontColor=#1A1A1A;" parent="cI1EdFas20C-Gkk_I_3K-45" vertex="1">
          <mxGeometry x="53.75" width="111.25" height="30" as="geometry">
            <mxRectangle width="111.25" height="30" as="alternateBounds" />
          </mxGeometry>
        </mxCell>
        <mxCell id="cI1EdFas20C-Gkk_I_3K-48" value="" style="shape=tableRow;horizontal=0;startSize=0;swimlaneHead=0;swimlaneBody=0;fillColor=none;collapsible=0;dropTarget=0;points=[[0,0.5],[1,0.5]];portConstraint=eastwest;top=0;left=0;right=0;bottom=0;rounded=1;strokeColor=#909090;fontColor=#1A1A1A;" parent="cI1EdFas20C-Gkk_I_3K-38" vertex="1">
          <mxGeometry y="150" width="165" height="30" as="geometry" />
        </mxCell>
        <mxCell id="cI1EdFas20C-Gkk_I_3K-49" value="" style="shape=partialRectangle;connectable=0;fillColor=none;top=0;left=0;bottom=0;right=0;editable=1;overflow=hidden;rounded=1;strokeColor=#909090;fontColor=#1A1A1A;" parent="cI1EdFas20C-Gkk_I_3K-48" vertex="1">
          <mxGeometry width="53.75" height="30" as="geometry">
            <mxRectangle width="53.75" height="30" as="alternateBounds" />
          </mxGeometry>
        </mxCell>
        <mxCell id="cI1EdFas20C-Gkk_I_3K-50" value="gate" style="shape=partialRectangle;connectable=0;fillColor=none;top=0;left=0;bottom=0;right=0;align=left;spacingLeft=6;overflow=hidden;rounded=1;strokeColor=#909090;fontColor=#1A1A1A;" parent="cI1EdFas20C-Gkk_I_3K-48" vertex="1">
          <mxGeometry x="53.75" width="111.25" height="30" as="geometry">
            <mxRectangle width="111.25" height="30" as="alternateBounds" />
          </mxGeometry>
        </mxCell>
        <mxCell id="9Ja0Sbp-JwV_G-eHVTyk-114" style="shape=tableRow;horizontal=0;startSize=0;swimlaneHead=0;swimlaneBody=0;fillColor=none;collapsible=0;dropTarget=0;points=[[0,0.5],[1,0.5]];portConstraint=eastwest;top=0;left=0;right=0;bottom=0;rounded=1;strokeColor=#909090;fontColor=#1A1A1A;" parent="cI1EdFas20C-Gkk_I_3K-38" vertex="1">
          <mxGeometry y="180" width="165" height="30" as="geometry" />
        </mxCell>
        <mxCell id="9Ja0Sbp-JwV_G-eHVTyk-115" style="shape=partialRectangle;connectable=0;fillColor=none;top=0;left=0;bottom=0;right=0;editable=1;overflow=hidden;rounded=1;strokeColor=#909090;fontColor=#1A1A1A;" parent="9Ja0Sbp-JwV_G-eHVTyk-114" vertex="1">
          <mxGeometry width="53.75" height="30" as="geometry">
            <mxRectangle width="53.75" height="30" as="alternateBounds" />
          </mxGeometry>
        </mxCell>
        <mxCell id="9Ja0Sbp-JwV_G-eHVTyk-116" value="flight_status" style="shape=partialRectangle;connectable=0;fillColor=none;top=0;left=0;bottom=0;right=0;align=left;spacingLeft=6;overflow=hidden;rounded=1;strokeColor=#909090;fontColor=#1A1A1A;" parent="9Ja0Sbp-JwV_G-eHVTyk-114" vertex="1">
          <mxGeometry x="53.75" width="111.25" height="30" as="geometry">
            <mxRectangle width="111.25" height="30" as="alternateBounds" />
          </mxGeometry>
        </mxCell>
        <mxCell id="cI1EdFas20C-Gkk_I_3K-51" style="shape=tableRow;horizontal=0;startSize=0;swimlaneHead=0;swimlaneBody=0;fillColor=none;collapsible=0;dropTarget=0;points=[[0,0.5],[1,0.5]];portConstraint=eastwest;top=0;left=0;right=0;bottom=0;rounded=1;strokeColor=#909090;fontColor=#1A1A1A;" parent="cI1EdFas20C-Gkk_I_3K-38" vertex="1">
          <mxGeometry y="210" width="165" height="30" as="geometry" />
        </mxCell>
        <mxCell id="cI1EdFas20C-Gkk_I_3K-52" value="FK" style="shape=partialRectangle;connectable=0;fillColor=none;top=0;left=0;bottom=0;right=0;editable=1;overflow=hidden;rounded=1;strokeColor=#909090;fontColor=#1A1A1A;" parent="cI1EdFas20C-Gkk_I_3K-51" vertex="1">
          <mxGeometry width="53.75" height="30" as="geometry">
            <mxRectangle width="53.75" height="30" as="alternateBounds" />
          </mxGeometry>
        </mxCell>
        <mxCell id="cI1EdFas20C-Gkk_I_3K-53" value="ac_id" style="shape=partialRectangle;connectable=0;fillColor=none;top=0;left=0;bottom=0;right=0;align=left;spacingLeft=6;overflow=hidden;rounded=1;strokeColor=#909090;fontColor=#1A1A1A;" parent="cI1EdFas20C-Gkk_I_3K-51" vertex="1">
          <mxGeometry x="53.75" width="111.25" height="30" as="geometry">
            <mxRectangle width="111.25" height="30" as="alternateBounds" />
          </mxGeometry>
        </mxCell>
        <mxCell id="cI1EdFas20C-Gkk_I_3K-54" style="shape=tableRow;horizontal=0;startSize=0;swimlaneHead=0;swimlaneBody=0;fillColor=none;collapsible=0;dropTarget=0;points=[[0,0.5],[1,0.5]];portConstraint=eastwest;top=0;left=0;right=0;bottom=0;rounded=1;strokeColor=#909090;fontColor=#1A1A1A;" parent="cI1EdFas20C-Gkk_I_3K-38" vertex="1">
          <mxGeometry y="240" width="165" height="30" as="geometry" />
        </mxCell>
        <mxCell id="cI1EdFas20C-Gkk_I_3K-55" style="shape=partialRectangle;connectable=0;fillColor=none;top=0;left=0;bottom=0;right=0;editable=1;overflow=hidden;rounded=1;strokeColor=#909090;fontColor=#1A1A1A;" parent="cI1EdFas20C-Gkk_I_3K-54" vertex="1">
          <mxGeometry width="53.75" height="30" as="geometry">
            <mxRectangle width="53.75" height="30" as="alternateBounds" />
          </mxGeometry>
        </mxCell>
        <mxCell id="cI1EdFas20C-Gkk_I_3K-56" value="current_seatmap" style="shape=partialRectangle;connectable=0;fillColor=none;top=0;left=0;bottom=0;right=0;align=left;spacingLeft=6;overflow=hidden;rounded=1;strokeColor=#909090;fontColor=#1A1A1A;" parent="cI1EdFas20C-Gkk_I_3K-54" vertex="1">
          <mxGeometry x="53.75" width="111.25" height="30" as="geometry">
            <mxRectangle width="111.25" height="30" as="alternateBounds" />
          </mxGeometry>
        </mxCell>
        <mxCell id="cI1EdFas20C-Gkk_I_3K-57" style="shape=tableRow;horizontal=0;startSize=0;swimlaneHead=0;swimlaneBody=0;fillColor=none;collapsible=0;dropTarget=0;points=[[0,0.5],[1,0.5]];portConstraint=eastwest;top=0;left=0;right=0;bottom=0;rounded=1;strokeColor=#909090;fontColor=#1A1A1A;" parent="cI1EdFas20C-Gkk_I_3K-38" vertex="1">
          <mxGeometry y="270" width="165" height="30" as="geometry" />
        </mxCell>
        <mxCell id="cI1EdFas20C-Gkk_I_3K-58" style="shape=partialRectangle;connectable=0;fillColor=none;top=0;left=0;bottom=0;right=0;editable=1;overflow=hidden;rounded=1;strokeColor=#909090;fontColor=#1A1A1A;" parent="cI1EdFas20C-Gkk_I_3K-57" vertex="1">
          <mxGeometry width="53.75" height="30" as="geometry">
            <mxRectangle width="53.75" height="30" as="alternateBounds" />
          </mxGeometry>
        </mxCell>
        <mxCell id="cI1EdFas20C-Gkk_I_3K-59" value="avai_seat" style="shape=partialRectangle;connectable=0;fillColor=none;top=0;left=0;bottom=0;right=0;align=left;spacingLeft=6;overflow=hidden;rounded=1;strokeColor=#909090;fontColor=#1A1A1A;" parent="cI1EdFas20C-Gkk_I_3K-57" vertex="1">
          <mxGeometry x="53.75" width="111.25" height="30" as="geometry">
            <mxRectangle width="111.25" height="30" as="alternateBounds" />
          </mxGeometry>
        </mxCell>
        <mxCell id="PiExUu4v5a1fwsBo875H-1" style="shape=tableRow;horizontal=0;startSize=0;swimlaneHead=0;swimlaneBody=0;fillColor=none;collapsible=0;dropTarget=0;points=[[0,0.5],[1,0.5]];portConstraint=eastwest;top=0;left=0;right=0;bottom=0;rounded=1;strokeColor=#909090;fontColor=#1A1A1A;" parent="cI1EdFas20C-Gkk_I_3K-38" vertex="1">
          <mxGeometry y="300" width="165" height="30" as="geometry" />
        </mxCell>
        <mxCell id="PiExUu4v5a1fwsBo875H-2" style="shape=partialRectangle;connectable=0;fillColor=none;top=0;left=0;bottom=0;right=0;editable=1;overflow=hidden;rounded=1;strokeColor=#909090;fontColor=#1A1A1A;" parent="PiExUu4v5a1fwsBo875H-1" vertex="1">
          <mxGeometry width="53.75" height="30" as="geometry">
            <mxRectangle width="53.75" height="30" as="alternateBounds" />
          </mxGeometry>
        </mxCell>
        <mxCell id="PiExUu4v5a1fwsBo875H-3" value="base_price" style="shape=partialRectangle;connectable=0;fillColor=none;top=0;left=0;bottom=0;right=0;align=left;spacingLeft=6;overflow=hidden;rounded=1;strokeColor=#909090;fontColor=#1A1A1A;" parent="PiExUu4v5a1fwsBo875H-1" vertex="1">
          <mxGeometry x="53.75" width="111.25" height="30" as="geometry">
            <mxRectangle width="111.25" height="30" as="alternateBounds" />
          </mxGeometry>
        </mxCell>
        <mxCell id="cI1EdFas20C-Gkk_I_3K-95" value="Member" style="shape=table;startSize=30;container=1;collapsible=1;childLayout=tableLayout;fixedRows=1;rowLines=0;fontStyle=1;align=center;resizeLast=1;rounded=1;fillColor=#F5AB50;strokeColor=#909090;fontColor=#1A1A1A;" parent="1" vertex="1">
          <mxGeometry x="1060" y="123" width="135" height="270" as="geometry" />
        </mxCell>
        <mxCell id="cI1EdFas20C-Gkk_I_3K-96" value="" style="shape=tableRow;horizontal=0;startSize=0;swimlaneHead=0;swimlaneBody=0;fillColor=none;collapsible=0;dropTarget=0;points=[[0,0.5],[1,0.5]];portConstraint=eastwest;top=0;left=0;right=0;bottom=1;rounded=1;strokeColor=#909090;fontColor=#1A1A1A;" parent="cI1EdFas20C-Gkk_I_3K-95" vertex="1">
          <mxGeometry y="30" width="135" height="30" as="geometry" />
        </mxCell>
        <mxCell id="cI1EdFas20C-Gkk_I_3K-97" value="PK,&#xa;FK" style="shape=partialRectangle;connectable=0;fillColor=none;top=0;left=0;bottom=0;right=0;fontStyle=1;overflow=hidden;rounded=1;strokeColor=#909090;fontColor=#1A1A1A;" parent="cI1EdFas20C-Gkk_I_3K-96" vertex="1">
          <mxGeometry width="33.29411764705878" height="30" as="geometry">
            <mxRectangle width="33.29411764705878" height="30" as="alternateBounds" />
          </mxGeometry>
        </mxCell>
        <mxCell id="cI1EdFas20C-Gkk_I_3K-98" value="id" style="shape=partialRectangle;connectable=0;fillColor=none;top=0;left=0;bottom=0;right=0;align=left;spacingLeft=6;fontStyle=5;overflow=hidden;rounded=1;strokeColor=#909090;fontColor=#1A1A1A;" parent="cI1EdFas20C-Gkk_I_3K-96" vertex="1">
          <mxGeometry x="33.29411764705878" width="101.70588235294122" height="30" as="geometry">
            <mxRectangle width="101.70588235294122" height="30" as="alternateBounds" />
          </mxGeometry>
        </mxCell>
        <mxCell id="cI1EdFas20C-Gkk_I_3K-99" value="" style="shape=tableRow;horizontal=0;startSize=0;swimlaneHead=0;swimlaneBody=0;fillColor=none;collapsible=0;dropTarget=0;points=[[0,0.5],[1,0.5]];portConstraint=eastwest;top=0;left=0;right=0;bottom=0;rounded=1;strokeColor=#909090;fontColor=#1A1A1A;" parent="cI1EdFas20C-Gkk_I_3K-95" vertex="1">
          <mxGeometry y="60" width="135" height="30" as="geometry" />
        </mxCell>
        <mxCell id="cI1EdFas20C-Gkk_I_3K-100" value="" style="shape=partialRectangle;connectable=0;fillColor=none;top=0;left=0;bottom=0;right=0;editable=1;overflow=hidden;rounded=1;strokeColor=#909090;fontColor=#1A1A1A;" parent="cI1EdFas20C-Gkk_I_3K-99" vertex="1">
          <mxGeometry width="33.29411764705878" height="30" as="geometry">
            <mxRectangle width="33.29411764705878" height="30" as="alternateBounds" />
          </mxGeometry>
        </mxCell>
        <mxCell id="cI1EdFas20C-Gkk_I_3K-101" value="title" style="shape=partialRectangle;connectable=0;fillColor=none;top=0;left=0;bottom=0;right=0;align=left;spacingLeft=6;overflow=hidden;rounded=1;strokeColor=#909090;fontColor=#1A1A1A;" parent="cI1EdFas20C-Gkk_I_3K-99" vertex="1">
          <mxGeometry x="33.29411764705878" width="101.70588235294122" height="30" as="geometry">
            <mxRectangle width="101.70588235294122" height="30" as="alternateBounds" />
          </mxGeometry>
        </mxCell>
        <mxCell id="cI1EdFas20C-Gkk_I_3K-102" value="" style="shape=tableRow;horizontal=0;startSize=0;swimlaneHead=0;swimlaneBody=0;fillColor=none;collapsible=0;dropTarget=0;points=[[0,0.5],[1,0.5]];portConstraint=eastwest;top=0;left=0;right=0;bottom=0;rounded=1;strokeColor=#909090;fontColor=#1A1A1A;" parent="cI1EdFas20C-Gkk_I_3K-95" vertex="1">
          <mxGeometry y="90" width="135" height="30" as="geometry" />
        </mxCell>
        <mxCell id="cI1EdFas20C-Gkk_I_3K-103" value="" style="shape=partialRectangle;connectable=0;fillColor=none;top=0;left=0;bottom=0;right=0;editable=1;overflow=hidden;rounded=1;strokeColor=#909090;fontColor=#1A1A1A;" parent="cI1EdFas20C-Gkk_I_3K-102" vertex="1">
          <mxGeometry width="33.29411764705878" height="30" as="geometry">
            <mxRectangle width="33.29411764705878" height="30" as="alternateBounds" />
          </mxGeometry>
        </mxCell>
        <mxCell id="cI1EdFas20C-Gkk_I_3K-104" value="first_name" style="shape=partialRectangle;connectable=0;fillColor=none;top=0;left=0;bottom=0;right=0;align=left;spacingLeft=6;overflow=hidden;rounded=1;strokeColor=#909090;fontColor=#1A1A1A;" parent="cI1EdFas20C-Gkk_I_3K-102" vertex="1">
          <mxGeometry x="33.29411764705878" width="101.70588235294122" height="30" as="geometry">
            <mxRectangle width="101.70588235294122" height="30" as="alternateBounds" />
          </mxGeometry>
        </mxCell>
        <mxCell id="cI1EdFas20C-Gkk_I_3K-105" value="" style="shape=tableRow;horizontal=0;startSize=0;swimlaneHead=0;swimlaneBody=0;fillColor=none;collapsible=0;dropTarget=0;points=[[0,0.5],[1,0.5]];portConstraint=eastwest;top=0;left=0;right=0;bottom=0;rounded=1;strokeColor=#909090;fontColor=#1A1A1A;" parent="cI1EdFas20C-Gkk_I_3K-95" vertex="1">
          <mxGeometry y="120" width="135" height="30" as="geometry" />
        </mxCell>
        <mxCell id="cI1EdFas20C-Gkk_I_3K-106" value="" style="shape=partialRectangle;connectable=0;fillColor=none;top=0;left=0;bottom=0;right=0;editable=1;overflow=hidden;rounded=1;strokeColor=#909090;fontColor=#1A1A1A;" parent="cI1EdFas20C-Gkk_I_3K-105" vertex="1">
          <mxGeometry width="33.29411764705878" height="30" as="geometry">
            <mxRectangle width="33.29411764705878" height="30" as="alternateBounds" />
          </mxGeometry>
        </mxCell>
        <mxCell id="cI1EdFas20C-Gkk_I_3K-107" value="last_name" style="shape=partialRectangle;connectable=0;fillColor=none;top=0;left=0;bottom=0;right=0;align=left;spacingLeft=6;overflow=hidden;rounded=1;strokeColor=#909090;fontColor=#1A1A1A;" parent="cI1EdFas20C-Gkk_I_3K-105" vertex="1">
          <mxGeometry x="33.29411764705878" width="101.70588235294122" height="30" as="geometry">
            <mxRectangle width="101.70588235294122" height="30" as="alternateBounds" />
          </mxGeometry>
        </mxCell>
        <mxCell id="9Ja0Sbp-JwV_G-eHVTyk-69" style="shape=tableRow;horizontal=0;startSize=0;swimlaneHead=0;swimlaneBody=0;fillColor=none;collapsible=0;dropTarget=0;points=[[0,0.5],[1,0.5]];portConstraint=eastwest;top=0;left=0;right=0;bottom=0;rounded=1;strokeColor=#909090;fontColor=#1A1A1A;" parent="cI1EdFas20C-Gkk_I_3K-95" vertex="1">
          <mxGeometry y="150" width="135" height="30" as="geometry" />
        </mxCell>
        <mxCell id="9Ja0Sbp-JwV_G-eHVTyk-70" style="shape=partialRectangle;connectable=0;fillColor=none;top=0;left=0;bottom=0;right=0;editable=1;overflow=hidden;rounded=1;strokeColor=#909090;fontColor=#1A1A1A;" parent="9Ja0Sbp-JwV_G-eHVTyk-69" vertex="1">
          <mxGeometry width="33.29411764705878" height="30" as="geometry">
            <mxRectangle width="33.29411764705878" height="30" as="alternateBounds" />
          </mxGeometry>
        </mxCell>
        <mxCell id="9Ja0Sbp-JwV_G-eHVTyk-71" value="points" style="shape=partialRectangle;connectable=0;fillColor=none;top=0;left=0;bottom=0;right=0;align=left;spacingLeft=6;overflow=hidden;rounded=1;strokeColor=#909090;fontColor=#1A1A1A;" parent="9Ja0Sbp-JwV_G-eHVTyk-69" vertex="1">
          <mxGeometry x="33.29411764705878" width="101.70588235294122" height="30" as="geometry">
            <mxRectangle width="101.70588235294122" height="30" as="alternateBounds" />
          </mxGeometry>
        </mxCell>
        <mxCell id="9Ja0Sbp-JwV_G-eHVTyk-88" style="shape=tableRow;horizontal=0;startSize=0;swimlaneHead=0;swimlaneBody=0;fillColor=none;collapsible=0;dropTarget=0;points=[[0,0.5],[1,0.5]];portConstraint=eastwest;top=0;left=0;right=0;bottom=0;rounded=1;strokeColor=#909090;fontColor=#1A1A1A;" parent="cI1EdFas20C-Gkk_I_3K-95" vertex="1">
          <mxGeometry y="180" width="135" height="30" as="geometry" />
        </mxCell>
        <mxCell id="9Ja0Sbp-JwV_G-eHVTyk-89" style="shape=partialRectangle;connectable=0;fillColor=none;top=0;left=0;bottom=0;right=0;editable=1;overflow=hidden;rounded=1;strokeColor=#909090;fontColor=#1A1A1A;" parent="9Ja0Sbp-JwV_G-eHVTyk-88" vertex="1">
          <mxGeometry width="33.29411764705878" height="30" as="geometry">
            <mxRectangle width="33.29411764705878" height="30" as="alternateBounds" />
          </mxGeometry>
        </mxCell>
        <mxCell id="9Ja0Sbp-JwV_G-eHVTyk-90" value="discount_rate_id" style="shape=partialRectangle;connectable=0;fillColor=none;top=0;left=0;bottom=0;right=0;align=left;spacingLeft=6;overflow=hidden;rounded=1;strokeColor=#909090;fontColor=#1A1A1A;" parent="9Ja0Sbp-JwV_G-eHVTyk-88" vertex="1">
          <mxGeometry x="33.29411764705878" width="101.70588235294122" height="30" as="geometry">
            <mxRectangle width="101.70588235294122" height="30" as="alternateBounds" />
          </mxGeometry>
        </mxCell>
        <mxCell id="cI1EdFas20C-Gkk_I_3K-109" style="shape=tableRow;horizontal=0;startSize=0;swimlaneHead=0;swimlaneBody=0;fillColor=none;collapsible=0;dropTarget=0;points=[[0,0.5],[1,0.5]];portConstraint=eastwest;top=0;left=0;right=0;bottom=0;rounded=1;strokeColor=#909090;fontColor=#1A1A1A;" parent="cI1EdFas20C-Gkk_I_3K-95" vertex="1">
          <mxGeometry y="210" width="135" height="30" as="geometry" />
        </mxCell>
        <mxCell id="cI1EdFas20C-Gkk_I_3K-110" style="shape=partialRectangle;connectable=0;fillColor=none;top=0;left=0;bottom=0;right=0;editable=1;overflow=hidden;rounded=1;strokeColor=#909090;fontColor=#1A1A1A;" parent="cI1EdFas20C-Gkk_I_3K-109" vertex="1">
          <mxGeometry width="33.29411764705878" height="30" as="geometry">
            <mxRectangle width="33.29411764705878" height="30" as="alternateBounds" />
          </mxGeometry>
        </mxCell>
        <mxCell id="cI1EdFas20C-Gkk_I_3K-111" value="email" style="shape=partialRectangle;connectable=0;fillColor=none;top=0;left=0;bottom=0;right=0;align=left;spacingLeft=6;overflow=hidden;rounded=1;strokeColor=#909090;fontColor=#1A1A1A;" parent="cI1EdFas20C-Gkk_I_3K-109" vertex="1">
          <mxGeometry x="33.29411764705878" width="101.70588235294122" height="30" as="geometry">
            <mxRectangle width="101.70588235294122" height="30" as="alternateBounds" />
          </mxGeometry>
        </mxCell>
        <mxCell id="cI1EdFas20C-Gkk_I_3K-112" style="shape=tableRow;horizontal=0;startSize=0;swimlaneHead=0;swimlaneBody=0;fillColor=none;collapsible=0;dropTarget=0;points=[[0,0.5],[1,0.5]];portConstraint=eastwest;top=0;left=0;right=0;bottom=0;rounded=1;strokeColor=#909090;fontColor=#1A1A1A;" parent="cI1EdFas20C-Gkk_I_3K-95" vertex="1">
          <mxGeometry y="240" width="135" height="30" as="geometry" />
        </mxCell>
        <mxCell id="cI1EdFas20C-Gkk_I_3K-113" style="shape=partialRectangle;connectable=0;fillColor=none;top=0;left=0;bottom=0;right=0;editable=1;overflow=hidden;rounded=1;strokeColor=#909090;fontColor=#1A1A1A;" parent="cI1EdFas20C-Gkk_I_3K-112" vertex="1">
          <mxGeometry width="33.29411764705878" height="30" as="geometry">
            <mxRectangle width="33.29411764705878" height="30" as="alternateBounds" />
          </mxGeometry>
        </mxCell>
        <mxCell id="cI1EdFas20C-Gkk_I_3K-114" value="phone" style="shape=partialRectangle;connectable=0;fillColor=none;top=0;left=0;bottom=0;right=0;align=left;spacingLeft=6;overflow=hidden;rounded=1;strokeColor=#909090;fontColor=#1A1A1A;" parent="cI1EdFas20C-Gkk_I_3K-112" vertex="1">
          <mxGeometry x="33.29411764705878" width="101.70588235294122" height="30" as="geometry">
            <mxRectangle width="101.70588235294122" height="30" as="alternateBounds" />
          </mxGeometry>
        </mxCell>
        <mxCell id="cI1EdFas20C-Gkk_I_3K-115" value="Infant" style="shape=table;startSize=30;container=1;collapsible=1;childLayout=tableLayout;fixedRows=1;rowLines=0;fontStyle=1;align=center;resizeLast=1;rounded=1;fillColor=#F5AB50;strokeColor=#909090;fontColor=#1A1A1A;" parent="1" vertex="1">
          <mxGeometry x="1074.5" y="422" width="106" height="150" as="geometry" />
        </mxCell>
        <mxCell id="cI1EdFas20C-Gkk_I_3K-116" value="" style="shape=tableRow;horizontal=0;startSize=0;swimlaneHead=0;swimlaneBody=0;fillColor=none;collapsible=0;dropTarget=0;points=[[0,0.5],[1,0.5]];portConstraint=eastwest;top=0;left=0;right=0;bottom=1;rounded=1;strokeColor=#909090;fontColor=#1A1A1A;" parent="cI1EdFas20C-Gkk_I_3K-115" vertex="1">
          <mxGeometry y="30" width="106" height="30" as="geometry" />
        </mxCell>
        <mxCell id="cI1EdFas20C-Gkk_I_3K-117" value="PK" style="shape=partialRectangle;connectable=0;fillColor=none;top=0;left=0;bottom=0;right=0;fontStyle=1;overflow=hidden;rounded=1;strokeColor=#909090;fontColor=#1A1A1A;" parent="cI1EdFas20C-Gkk_I_3K-116" vertex="1">
          <mxGeometry width="30" height="30" as="geometry">
            <mxRectangle width="30" height="30" as="alternateBounds" />
          </mxGeometry>
        </mxCell>
        <mxCell id="cI1EdFas20C-Gkk_I_3K-118" value="infant_id" style="shape=partialRectangle;connectable=0;fillColor=none;top=0;left=0;bottom=0;right=0;align=left;spacingLeft=6;fontStyle=5;overflow=hidden;rounded=1;strokeColor=#909090;fontColor=#1A1A1A;" parent="cI1EdFas20C-Gkk_I_3K-116" vertex="1">
          <mxGeometry x="30" width="76" height="30" as="geometry">
            <mxRectangle width="76" height="30" as="alternateBounds" />
          </mxGeometry>
        </mxCell>
        <mxCell id="cI1EdFas20C-Gkk_I_3K-119" value="" style="shape=tableRow;horizontal=0;startSize=0;swimlaneHead=0;swimlaneBody=0;fillColor=none;collapsible=0;dropTarget=0;points=[[0,0.5],[1,0.5]];portConstraint=eastwest;top=0;left=0;right=0;bottom=0;rounded=1;strokeColor=#909090;fontColor=#1A1A1A;" parent="cI1EdFas20C-Gkk_I_3K-115" vertex="1">
          <mxGeometry y="60" width="106" height="30" as="geometry" />
        </mxCell>
        <mxCell id="cI1EdFas20C-Gkk_I_3K-120" value="" style="shape=partialRectangle;connectable=0;fillColor=none;top=0;left=0;bottom=0;right=0;editable=1;overflow=hidden;rounded=1;strokeColor=#909090;fontColor=#1A1A1A;" parent="cI1EdFas20C-Gkk_I_3K-119" vertex="1">
          <mxGeometry width="30" height="30" as="geometry">
            <mxRectangle width="30" height="30" as="alternateBounds" />
          </mxGeometry>
        </mxCell>
        <mxCell id="cI1EdFas20C-Gkk_I_3K-121" value="first_name" style="shape=partialRectangle;connectable=0;fillColor=none;top=0;left=0;bottom=0;right=0;align=left;spacingLeft=6;overflow=hidden;rounded=1;strokeColor=#909090;fontColor=#1A1A1A;" parent="cI1EdFas20C-Gkk_I_3K-119" vertex="1">
          <mxGeometry x="30" width="76" height="30" as="geometry">
            <mxRectangle width="76" height="30" as="alternateBounds" />
          </mxGeometry>
        </mxCell>
        <mxCell id="cI1EdFas20C-Gkk_I_3K-122" value="" style="shape=tableRow;horizontal=0;startSize=0;swimlaneHead=0;swimlaneBody=0;fillColor=none;collapsible=0;dropTarget=0;points=[[0,0.5],[1,0.5]];portConstraint=eastwest;top=0;left=0;right=0;bottom=0;rounded=1;strokeColor=#909090;fontColor=#1A1A1A;" parent="cI1EdFas20C-Gkk_I_3K-115" vertex="1">
          <mxGeometry y="90" width="106" height="30" as="geometry" />
        </mxCell>
        <mxCell id="cI1EdFas20C-Gkk_I_3K-123" value="" style="shape=partialRectangle;connectable=0;fillColor=none;top=0;left=0;bottom=0;right=0;editable=1;overflow=hidden;rounded=1;strokeColor=#909090;fontColor=#1A1A1A;" parent="cI1EdFas20C-Gkk_I_3K-122" vertex="1">
          <mxGeometry width="30" height="30" as="geometry">
            <mxRectangle width="30" height="30" as="alternateBounds" />
          </mxGeometry>
        </mxCell>
        <mxCell id="cI1EdFas20C-Gkk_I_3K-124" value="last_name" style="shape=partialRectangle;connectable=0;fillColor=none;top=0;left=0;bottom=0;right=0;align=left;spacingLeft=6;overflow=hidden;rounded=1;strokeColor=#909090;fontColor=#1A1A1A;" parent="cI1EdFas20C-Gkk_I_3K-122" vertex="1">
          <mxGeometry x="30" width="76" height="30" as="geometry">
            <mxRectangle width="76" height="30" as="alternateBounds" />
          </mxGeometry>
        </mxCell>
        <mxCell id="cI1EdFas20C-Gkk_I_3K-125" value="" style="shape=tableRow;horizontal=0;startSize=0;swimlaneHead=0;swimlaneBody=0;fillColor=none;collapsible=0;dropTarget=0;points=[[0,0.5],[1,0.5]];portConstraint=eastwest;top=0;left=0;right=0;bottom=0;rounded=1;strokeColor=#909090;fontColor=#1A1A1A;" parent="cI1EdFas20C-Gkk_I_3K-115" vertex="1">
          <mxGeometry y="120" width="106" height="30" as="geometry" />
        </mxCell>
        <mxCell id="cI1EdFas20C-Gkk_I_3K-126" value="" style="shape=partialRectangle;connectable=0;fillColor=none;top=0;left=0;bottom=0;right=0;editable=1;overflow=hidden;rounded=1;strokeColor=#909090;fontColor=#1A1A1A;" parent="cI1EdFas20C-Gkk_I_3K-125" vertex="1">
          <mxGeometry width="30" height="30" as="geometry">
            <mxRectangle width="30" height="30" as="alternateBounds" />
          </mxGeometry>
        </mxCell>
        <mxCell id="cI1EdFas20C-Gkk_I_3K-127" value="dob" style="shape=partialRectangle;connectable=0;fillColor=none;top=0;left=0;bottom=0;right=0;align=left;spacingLeft=6;overflow=hidden;rounded=1;strokeColor=#909090;fontColor=#1A1A1A;" parent="cI1EdFas20C-Gkk_I_3K-125" vertex="1">
          <mxGeometry x="30" width="76" height="30" as="geometry">
            <mxRectangle width="76" height="30" as="alternateBounds" />
          </mxGeometry>
        </mxCell>
        <mxCell id="YAecf7uSMgIhEM43O8ZV-17" value="" style="edgeStyle=orthogonalEdgeStyle;fontSize=12;html=1;endArrow=ERoneToMany;rounded=1;exitX=1;exitY=0.5;exitDx=0;exitDy=0;entryX=0;entryY=0.5;entryDx=0;entryDy=0;startArrow=ERone;startFill=0;curved=1;labelBackgroundColor=#EEEEEE;strokeColor=#182E3E;fontColor=#1A1A1A;" parent="1" source="X1LZYcvNkwWMeeYN3kK6-3" target="_8KCfiRGIq8IKMVJ5JDC-1" edge="1">
          <mxGeometry width="100" height="100" relative="1" as="geometry">
            <mxPoint x="898.53" y="550.5" as="sourcePoint" />
            <mxPoint x="609.53" y="446.5" as="targetPoint" />
            <Array as="points">
              <mxPoint x="613.53" y="436" />
              <mxPoint x="613.53" y="466" />
            </Array>
          </mxGeometry>
        </mxCell>
        <mxCell id="4R2mOq7rzEsoQCD4yWHe-1" value="" style="edgeStyle=orthogonalEdgeStyle;fontSize=12;html=1;endArrow=ERoneToMany;rounded=1;exitX=1;exitY=0.5;exitDx=0;exitDy=0;entryX=0;entryY=0.5;entryDx=0;entryDy=0;startArrow=ERone;startFill=0;curved=1;labelBackgroundColor=#EEEEEE;strokeColor=#182E3E;fontColor=#1A1A1A;" parent="1" source="X1LZYcvNkwWMeeYN3kK6-43" target="cI1EdFas20C-Gkk_I_3K-51" edge="1">
          <mxGeometry width="100" height="100" relative="1" as="geometry">
            <mxPoint x="639.53" y="601.5" as="sourcePoint" />
            <mxPoint x="739.53" y="501.5" as="targetPoint" />
          </mxGeometry>
        </mxCell>
        <mxCell id="YAecf7uSMgIhEM43O8ZV-11" style="edgeStyle=orthogonalEdgeStyle;rounded=1;orthogonalLoop=1;jettySize=auto;html=1;exitX=1;exitY=0.5;exitDx=0;exitDy=0;entryX=0;entryY=0.5;entryDx=0;entryDy=0;endArrow=ERoneToMany;endFill=0;curved=1;labelBackgroundColor=#EEEEEE;strokeColor=#182E3E;fontColor=#1A1A1A;" parent="1" source="X1LZYcvNkwWMeeYN3kK6-28" target="X1LZYcvNkwWMeeYN3kK6-6" edge="1">
          <mxGeometry relative="1" as="geometry">
            <mxPoint x="1076.53" y="242.5" as="sourcePoint" />
          </mxGeometry>
        </mxCell>
        <mxCell id="YAecf7uSMgIhEM43O8ZV-19" style="edgeStyle=orthogonalEdgeStyle;rounded=1;orthogonalLoop=1;jettySize=auto;html=1;entryX=0;entryY=0.5;entryDx=0;entryDy=0;endArrow=ERoneToMany;endFill=0;curved=1;labelBackgroundColor=#EEEEEE;strokeColor=#182E3E;fontColor=#1A1A1A;" parent="1" source="X1LZYcvNkwWMeeYN3kK6-28" target="X1LZYcvNkwWMeeYN3kK6-9" edge="1">
          <mxGeometry relative="1" as="geometry" />
        </mxCell>
        <mxCell id="4R2mOq7rzEsoQCD4yWHe-26" style="edgeStyle=orthogonalEdgeStyle;rounded=1;orthogonalLoop=1;jettySize=auto;html=1;exitX=1;exitY=0.5;exitDx=0;exitDy=0;entryX=0;entryY=0.5;entryDx=0;entryDy=0;startArrow=ERzeroToMany;startFill=0;endArrow=ERzeroToOne;endFill=0;elbow=vertical;curved=1;labelBackgroundColor=#EEEEEE;strokeColor=#182E3E;fontColor=#1A1A1A;" parent="1" source="_8KCfiRGIq8IKMVJ5JDC-41" target="cI1EdFas20C-Gkk_I_3K-96" edge="1">
          <mxGeometry relative="1" as="geometry">
            <mxPoint x="1286" y="532.5" as="sourcePoint" />
          </mxGeometry>
        </mxCell>
        <mxCell id="4R2mOq7rzEsoQCD4yWHe-29" style="edgeStyle=orthogonalEdgeStyle;rounded=1;orthogonalLoop=1;jettySize=auto;html=1;exitX=1;exitY=0.5;exitDx=0;exitDy=0;entryX=0;entryY=0.5;entryDx=0;entryDy=0;startArrow=ERone;startFill=0;endArrow=ERzeroToMany;endFill=0;elbow=vertical;curved=1;labelBackgroundColor=#EEEEEE;strokeColor=#182E3E;fontColor=#1A1A1A;" parent="1" source="X1LZYcvNkwWMeeYN3kK6-62" target="cI1EdFas20C-Gkk_I_3K-54" edge="1">
          <mxGeometry relative="1" as="geometry" />
        </mxCell>
        <mxCell id="4R2mOq7rzEsoQCD4yWHe-30" style="edgeStyle=orthogonalEdgeStyle;rounded=1;orthogonalLoop=1;jettySize=auto;html=1;exitX=1;exitY=0.5;exitDx=0;exitDy=0;entryX=0;entryY=0.5;entryDx=0;entryDy=0;startArrow=ERmany;startFill=0;endArrow=ERone;endFill=0;elbow=vertical;curved=1;labelBackgroundColor=#EEEEEE;strokeColor=#182E3E;fontColor=#1A1A1A;" parent="1" source="X1LZYcvNkwWMeeYN3kK6-49" target="X1LZYcvNkwWMeeYN3kK6-59" edge="1">
          <mxGeometry relative="1" as="geometry" />
        </mxCell>
        <mxCell id="_8KCfiRGIq8IKMVJ5JDC-36" style="edgeStyle=orthogonalEdgeStyle;rounded=1;orthogonalLoop=1;jettySize=auto;html=1;exitX=0;exitY=0.5;exitDx=0;exitDy=0;entryX=1;entryY=0.5;entryDx=0;entryDy=0;fontColor=#1A1A1A;startArrow=ERone;startFill=0;endArrow=ERone;endFill=0;elbow=vertical;strokeColor=#182E3E;curved=1;labelBackgroundColor=#EEEEEE;" parent="1" source="cI1EdFas20C-Gkk_I_3K-21" target="cI1EdFas20C-Gkk_I_3K-42" edge="1">
          <mxGeometry relative="1" as="geometry">
            <mxPoint x="871" y="370" as="sourcePoint" />
            <mxPoint x="777" y="306" as="targetPoint" />
            <Array as="points">
              <mxPoint x="835" y="286" />
              <mxPoint x="835" y="436" />
            </Array>
          </mxGeometry>
        </mxCell>
        <mxCell id="_8KCfiRGIq8IKMVJ5JDC-99" style="edgeStyle=orthogonalEdgeStyle;curved=1;rounded=0;orthogonalLoop=1;jettySize=auto;html=1;exitX=0;exitY=0.5;exitDx=0;exitDy=0;entryX=1;entryY=0.5;entryDx=0;entryDy=0;startArrow=ERzeroToOne;startFill=0;endArrow=ERmandOne;endFill=0;" parent="1" source="cI1EdFas20C-Gkk_I_3K-116" target="itkVettDfMEEk3Mektog-10" edge="1">
          <mxGeometry relative="1" as="geometry">
            <mxPoint x="1286" y="681" as="targetPoint" />
          </mxGeometry>
        </mxCell>
        <mxCell id="9Ja0Sbp-JwV_G-eHVTyk-1" value="News" style="shape=table;startSize=30;container=1;collapsible=1;childLayout=tableLayout;fixedRows=1;rowLines=0;fontStyle=1;align=center;resizeLast=1;rounded=1;fillColor=#F5AB50;strokeColor=#909090;fontColor=#1A1A1A;" parent="1" vertex="1">
          <mxGeometry x="314" y="212" width="146" height="210" as="geometry" />
        </mxCell>
        <mxCell id="9Ja0Sbp-JwV_G-eHVTyk-2" value="" style="shape=tableRow;horizontal=0;startSize=0;swimlaneHead=0;swimlaneBody=0;fillColor=none;collapsible=0;dropTarget=0;points=[[0,0.5],[1,0.5]];portConstraint=eastwest;top=0;left=0;right=0;bottom=1;rounded=1;strokeColor=#909090;fontColor=#1A1A1A;" parent="9Ja0Sbp-JwV_G-eHVTyk-1" vertex="1">
          <mxGeometry y="30" width="146" height="30" as="geometry" />
        </mxCell>
        <mxCell id="9Ja0Sbp-JwV_G-eHVTyk-3" value="PK" style="shape=partialRectangle;connectable=0;fillColor=none;top=0;left=0;bottom=0;right=0;fontStyle=1;overflow=hidden;rounded=1;strokeColor=#909090;fontColor=#1A1A1A;" parent="9Ja0Sbp-JwV_G-eHVTyk-2" vertex="1">
          <mxGeometry width="33.29411764705878" height="30" as="geometry">
            <mxRectangle width="33.29411764705878" height="30" as="alternateBounds" />
          </mxGeometry>
        </mxCell>
        <mxCell id="9Ja0Sbp-JwV_G-eHVTyk-4" value="id" style="shape=partialRectangle;connectable=0;fillColor=none;top=0;left=0;bottom=0;right=0;align=left;spacingLeft=6;fontStyle=5;overflow=hidden;rounded=1;strokeColor=#909090;fontColor=#1A1A1A;" parent="9Ja0Sbp-JwV_G-eHVTyk-2" vertex="1">
          <mxGeometry x="33.29411764705878" width="112.70588235294122" height="30" as="geometry">
            <mxRectangle width="112.70588235294122" height="30" as="alternateBounds" />
          </mxGeometry>
        </mxCell>
        <mxCell id="9Ja0Sbp-JwV_G-eHVTyk-39" style="shape=tableRow;horizontal=0;startSize=0;swimlaneHead=0;swimlaneBody=0;fillColor=none;collapsible=0;dropTarget=0;points=[[0,0.5],[1,0.5]];portConstraint=eastwest;top=0;left=0;right=0;bottom=0;rounded=1;strokeColor=#909090;fontColor=#1A1A1A;" parent="9Ja0Sbp-JwV_G-eHVTyk-1" vertex="1">
          <mxGeometry y="60" width="146" height="30" as="geometry" />
        </mxCell>
        <mxCell id="9Ja0Sbp-JwV_G-eHVTyk-40" style="shape=partialRectangle;connectable=0;fillColor=none;top=0;left=0;bottom=0;right=0;editable=1;overflow=hidden;rounded=1;strokeColor=#909090;fontColor=#1A1A1A;" parent="9Ja0Sbp-JwV_G-eHVTyk-39" vertex="1">
          <mxGeometry width="33.29411764705878" height="30" as="geometry">
            <mxRectangle width="33.29411764705878" height="30" as="alternateBounds" />
          </mxGeometry>
        </mxCell>
        <mxCell id="9Ja0Sbp-JwV_G-eHVTyk-41" value="topic" style="shape=partialRectangle;connectable=0;fillColor=none;top=0;left=0;bottom=0;right=0;align=left;spacingLeft=6;overflow=hidden;rounded=1;strokeColor=#909090;fontColor=#1A1A1A;" parent="9Ja0Sbp-JwV_G-eHVTyk-39" vertex="1">
          <mxGeometry x="33.29411764705878" width="112.70588235294122" height="30" as="geometry">
            <mxRectangle width="112.70588235294122" height="30" as="alternateBounds" />
          </mxGeometry>
        </mxCell>
        <mxCell id="9Ja0Sbp-JwV_G-eHVTyk-5" value="" style="shape=tableRow;horizontal=0;startSize=0;swimlaneHead=0;swimlaneBody=0;fillColor=none;collapsible=0;dropTarget=0;points=[[0,0.5],[1,0.5]];portConstraint=eastwest;top=0;left=0;right=0;bottom=0;rounded=1;strokeColor=#909090;fontColor=#1A1A1A;" parent="9Ja0Sbp-JwV_G-eHVTyk-1" vertex="1">
          <mxGeometry y="90" width="146" height="30" as="geometry" />
        </mxCell>
        <mxCell id="9Ja0Sbp-JwV_G-eHVTyk-6" value="" style="shape=partialRectangle;connectable=0;fillColor=none;top=0;left=0;bottom=0;right=0;editable=1;overflow=hidden;rounded=1;strokeColor=#909090;fontColor=#1A1A1A;" parent="9Ja0Sbp-JwV_G-eHVTyk-5" vertex="1">
          <mxGeometry width="33.29411764705878" height="30" as="geometry">
            <mxRectangle width="33.29411764705878" height="30" as="alternateBounds" />
          </mxGeometry>
        </mxCell>
        <mxCell id="9Ja0Sbp-JwV_G-eHVTyk-7" value="title" style="shape=partialRectangle;connectable=0;fillColor=none;top=0;left=0;bottom=0;right=0;align=left;spacingLeft=6;overflow=hidden;rounded=1;strokeColor=#909090;fontColor=#1A1A1A;" parent="9Ja0Sbp-JwV_G-eHVTyk-5" vertex="1">
          <mxGeometry x="33.29411764705878" width="112.70588235294122" height="30" as="geometry">
            <mxRectangle width="112.70588235294122" height="30" as="alternateBounds" />
          </mxGeometry>
        </mxCell>
        <mxCell id="9Ja0Sbp-JwV_G-eHVTyk-8" value="" style="shape=tableRow;horizontal=0;startSize=0;swimlaneHead=0;swimlaneBody=0;fillColor=none;collapsible=0;dropTarget=0;points=[[0,0.5],[1,0.5]];portConstraint=eastwest;top=0;left=0;right=0;bottom=0;rounded=1;strokeColor=#909090;fontColor=#1A1A1A;" parent="9Ja0Sbp-JwV_G-eHVTyk-1" vertex="1">
          <mxGeometry y="120" width="146" height="30" as="geometry" />
        </mxCell>
        <mxCell id="9Ja0Sbp-JwV_G-eHVTyk-9" value="" style="shape=partialRectangle;connectable=0;fillColor=none;top=0;left=0;bottom=0;right=0;editable=1;overflow=hidden;rounded=1;strokeColor=#909090;fontColor=#1A1A1A;" parent="9Ja0Sbp-JwV_G-eHVTyk-8" vertex="1">
          <mxGeometry width="33.29411764705878" height="30" as="geometry">
            <mxRectangle width="33.29411764705878" height="30" as="alternateBounds" />
          </mxGeometry>
        </mxCell>
        <mxCell id="9Ja0Sbp-JwV_G-eHVTyk-10" value="content" style="shape=partialRectangle;connectable=0;fillColor=none;top=0;left=0;bottom=0;right=0;align=left;spacingLeft=6;overflow=hidden;rounded=1;strokeColor=#909090;fontColor=#1A1A1A;" parent="9Ja0Sbp-JwV_G-eHVTyk-8" vertex="1">
          <mxGeometry x="33.29411764705878" width="112.70588235294122" height="30" as="geometry">
            <mxRectangle width="112.70588235294122" height="30" as="alternateBounds" />
          </mxGeometry>
        </mxCell>
        <mxCell id="9Ja0Sbp-JwV_G-eHVTyk-11" value="" style="shape=tableRow;horizontal=0;startSize=0;swimlaneHead=0;swimlaneBody=0;fillColor=none;collapsible=0;dropTarget=0;points=[[0,0.5],[1,0.5]];portConstraint=eastwest;top=0;left=0;right=0;bottom=0;rounded=1;strokeColor=#909090;fontColor=#1A1A1A;" parent="9Ja0Sbp-JwV_G-eHVTyk-1" vertex="1">
          <mxGeometry y="150" width="146" height="30" as="geometry" />
        </mxCell>
        <mxCell id="9Ja0Sbp-JwV_G-eHVTyk-12" value="" style="shape=partialRectangle;connectable=0;fillColor=none;top=0;left=0;bottom=0;right=0;editable=1;overflow=hidden;rounded=1;strokeColor=#909090;fontColor=#1A1A1A;" parent="9Ja0Sbp-JwV_G-eHVTyk-11" vertex="1">
          <mxGeometry width="33.29411764705878" height="30" as="geometry">
            <mxRectangle width="33.29411764705878" height="30" as="alternateBounds" />
          </mxGeometry>
        </mxCell>
        <mxCell id="9Ja0Sbp-JwV_G-eHVTyk-13" value="post_date" style="shape=partialRectangle;connectable=0;fillColor=none;top=0;left=0;bottom=0;right=0;align=left;spacingLeft=6;overflow=hidden;rounded=1;strokeColor=#909090;fontColor=#1A1A1A;" parent="9Ja0Sbp-JwV_G-eHVTyk-11" vertex="1">
          <mxGeometry x="33.29411764705878" width="112.70588235294122" height="30" as="geometry">
            <mxRectangle width="112.70588235294122" height="30" as="alternateBounds" />
          </mxGeometry>
        </mxCell>
        <mxCell id="9Ja0Sbp-JwV_G-eHVTyk-17" style="shape=tableRow;horizontal=0;startSize=0;swimlaneHead=0;swimlaneBody=0;fillColor=none;collapsible=0;dropTarget=0;points=[[0,0.5],[1,0.5]];portConstraint=eastwest;top=0;left=0;right=0;bottom=0;rounded=1;strokeColor=#909090;fontColor=#1A1A1A;" parent="9Ja0Sbp-JwV_G-eHVTyk-1" vertex="1">
          <mxGeometry y="180" width="146" height="30" as="geometry" />
        </mxCell>
        <mxCell id="9Ja0Sbp-JwV_G-eHVTyk-18" style="shape=partialRectangle;connectable=0;fillColor=none;top=0;left=0;bottom=0;right=0;editable=1;overflow=hidden;rounded=1;strokeColor=#909090;fontColor=#1A1A1A;" parent="9Ja0Sbp-JwV_G-eHVTyk-17" vertex="1">
          <mxGeometry width="33.29411764705878" height="30" as="geometry">
            <mxRectangle width="33.29411764705878" height="30" as="alternateBounds" />
          </mxGeometry>
        </mxCell>
        <mxCell id="9Ja0Sbp-JwV_G-eHVTyk-19" value="image" style="shape=partialRectangle;connectable=0;fillColor=none;top=0;left=0;bottom=0;right=0;align=left;spacingLeft=6;overflow=hidden;rounded=1;strokeColor=#909090;fontColor=#1A1A1A;" parent="9Ja0Sbp-JwV_G-eHVTyk-17" vertex="1">
          <mxGeometry x="33.29411764705878" width="112.70588235294122" height="30" as="geometry">
            <mxRectangle width="112.70588235294122" height="30" as="alternateBounds" />
          </mxGeometry>
        </mxCell>
        <mxCell id="9Ja0Sbp-JwV_G-eHVTyk-20" value="Feedback" style="shape=table;startSize=30;container=1;collapsible=1;childLayout=tableLayout;fixedRows=1;rowLines=0;fontStyle=1;align=center;resizeLast=1;rounded=1;fillColor=#F5AB50;strokeColor=#909090;fontColor=#1A1A1A;" parent="1" vertex="1">
          <mxGeometry x="476.53" y="138" width="146" height="210" as="geometry" />
        </mxCell>
        <mxCell id="9Ja0Sbp-JwV_G-eHVTyk-21" value="" style="shape=tableRow;horizontal=0;startSize=0;swimlaneHead=0;swimlaneBody=0;fillColor=none;collapsible=0;dropTarget=0;points=[[0,0.5],[1,0.5]];portConstraint=eastwest;top=0;left=0;right=0;bottom=1;rounded=1;strokeColor=#909090;fontColor=#1A1A1A;" parent="9Ja0Sbp-JwV_G-eHVTyk-20" vertex="1">
          <mxGeometry y="30" width="146" height="30" as="geometry" />
        </mxCell>
        <mxCell id="9Ja0Sbp-JwV_G-eHVTyk-22" value="PK" style="shape=partialRectangle;connectable=0;fillColor=none;top=0;left=0;bottom=0;right=0;fontStyle=1;overflow=hidden;rounded=1;strokeColor=#909090;fontColor=#1A1A1A;" parent="9Ja0Sbp-JwV_G-eHVTyk-21" vertex="1">
          <mxGeometry width="33.29411764705878" height="30" as="geometry">
            <mxRectangle width="33.29411764705878" height="30" as="alternateBounds" />
          </mxGeometry>
        </mxCell>
        <mxCell id="9Ja0Sbp-JwV_G-eHVTyk-23" value="id" style="shape=partialRectangle;connectable=0;fillColor=none;top=0;left=0;bottom=0;right=0;align=left;spacingLeft=6;fontStyle=5;overflow=hidden;rounded=1;strokeColor=#909090;fontColor=#1A1A1A;" parent="9Ja0Sbp-JwV_G-eHVTyk-21" vertex="1">
          <mxGeometry x="33.29411764705878" width="112.70588235294122" height="30" as="geometry">
            <mxRectangle width="112.70588235294122" height="30" as="alternateBounds" />
          </mxGeometry>
        </mxCell>
        <mxCell id="9Ja0Sbp-JwV_G-eHVTyk-24" value="" style="shape=tableRow;horizontal=0;startSize=0;swimlaneHead=0;swimlaneBody=0;fillColor=none;collapsible=0;dropTarget=0;points=[[0,0.5],[1,0.5]];portConstraint=eastwest;top=0;left=0;right=0;bottom=0;rounded=1;strokeColor=#909090;fontColor=#1A1A1A;" parent="9Ja0Sbp-JwV_G-eHVTyk-20" vertex="1">
          <mxGeometry y="60" width="146" height="30" as="geometry" />
        </mxCell>
        <mxCell id="9Ja0Sbp-JwV_G-eHVTyk-25" value="" style="shape=partialRectangle;connectable=0;fillColor=none;top=0;left=0;bottom=0;right=0;editable=1;overflow=hidden;rounded=1;strokeColor=#909090;fontColor=#1A1A1A;" parent="9Ja0Sbp-JwV_G-eHVTyk-24" vertex="1">
          <mxGeometry width="33.29411764705878" height="30" as="geometry">
            <mxRectangle width="33.29411764705878" height="30" as="alternateBounds" />
          </mxGeometry>
        </mxCell>
        <mxCell id="9Ja0Sbp-JwV_G-eHVTyk-26" value="mem_id" style="shape=partialRectangle;connectable=0;fillColor=none;top=0;left=0;bottom=0;right=0;align=left;spacingLeft=6;overflow=hidden;rounded=1;strokeColor=#909090;fontColor=#1A1A1A;" parent="9Ja0Sbp-JwV_G-eHVTyk-24" vertex="1">
          <mxGeometry x="33.29411764705878" width="112.70588235294122" height="30" as="geometry">
            <mxRectangle width="112.70588235294122" height="30" as="alternateBounds" />
          </mxGeometry>
        </mxCell>
        <mxCell id="9Ja0Sbp-JwV_G-eHVTyk-27" value="" style="shape=tableRow;horizontal=0;startSize=0;swimlaneHead=0;swimlaneBody=0;fillColor=none;collapsible=0;dropTarget=0;points=[[0,0.5],[1,0.5]];portConstraint=eastwest;top=0;left=0;right=0;bottom=0;rounded=1;strokeColor=#909090;fontColor=#1A1A1A;" parent="9Ja0Sbp-JwV_G-eHVTyk-20" vertex="1">
          <mxGeometry y="90" width="146" height="30" as="geometry" />
        </mxCell>
        <mxCell id="9Ja0Sbp-JwV_G-eHVTyk-28" value="" style="shape=partialRectangle;connectable=0;fillColor=none;top=0;left=0;bottom=0;right=0;editable=1;overflow=hidden;rounded=1;strokeColor=#909090;fontColor=#1A1A1A;" parent="9Ja0Sbp-JwV_G-eHVTyk-27" vertex="1">
          <mxGeometry width="33.29411764705878" height="30" as="geometry">
            <mxRectangle width="33.29411764705878" height="30" as="alternateBounds" />
          </mxGeometry>
        </mxCell>
        <mxCell id="9Ja0Sbp-JwV_G-eHVTyk-29" value="title" style="shape=partialRectangle;connectable=0;fillColor=none;top=0;left=0;bottom=0;right=0;align=left;spacingLeft=6;overflow=hidden;rounded=1;strokeColor=#909090;fontColor=#1A1A1A;" parent="9Ja0Sbp-JwV_G-eHVTyk-27" vertex="1">
          <mxGeometry x="33.29411764705878" width="112.70588235294122" height="30" as="geometry">
            <mxRectangle width="112.70588235294122" height="30" as="alternateBounds" />
          </mxGeometry>
        </mxCell>
        <mxCell id="9Ja0Sbp-JwV_G-eHVTyk-30" value="" style="shape=tableRow;horizontal=0;startSize=0;swimlaneHead=0;swimlaneBody=0;fillColor=none;collapsible=0;dropTarget=0;points=[[0,0.5],[1,0.5]];portConstraint=eastwest;top=0;left=0;right=0;bottom=0;rounded=1;strokeColor=#909090;fontColor=#1A1A1A;" parent="9Ja0Sbp-JwV_G-eHVTyk-20" vertex="1">
          <mxGeometry y="120" width="146" height="30" as="geometry" />
        </mxCell>
        <mxCell id="9Ja0Sbp-JwV_G-eHVTyk-31" value="" style="shape=partialRectangle;connectable=0;fillColor=none;top=0;left=0;bottom=0;right=0;editable=1;overflow=hidden;rounded=1;strokeColor=#909090;fontColor=#1A1A1A;" parent="9Ja0Sbp-JwV_G-eHVTyk-30" vertex="1">
          <mxGeometry width="33.29411764705878" height="30" as="geometry">
            <mxRectangle width="33.29411764705878" height="30" as="alternateBounds" />
          </mxGeometry>
        </mxCell>
        <mxCell id="9Ja0Sbp-JwV_G-eHVTyk-32" value="content" style="shape=partialRectangle;connectable=0;fillColor=none;top=0;left=0;bottom=0;right=0;align=left;spacingLeft=6;overflow=hidden;rounded=1;strokeColor=#909090;fontColor=#1A1A1A;" parent="9Ja0Sbp-JwV_G-eHVTyk-30" vertex="1">
          <mxGeometry x="33.29411764705878" width="112.70588235294122" height="30" as="geometry">
            <mxRectangle width="112.70588235294122" height="30" as="alternateBounds" />
          </mxGeometry>
        </mxCell>
        <mxCell id="9Ja0Sbp-JwV_G-eHVTyk-33" style="shape=tableRow;horizontal=0;startSize=0;swimlaneHead=0;swimlaneBody=0;fillColor=none;collapsible=0;dropTarget=0;points=[[0,0.5],[1,0.5]];portConstraint=eastwest;top=0;left=0;right=0;bottom=0;rounded=1;strokeColor=#909090;fontColor=#1A1A1A;" parent="9Ja0Sbp-JwV_G-eHVTyk-20" vertex="1">
          <mxGeometry y="150" width="146" height="30" as="geometry" />
        </mxCell>
        <mxCell id="9Ja0Sbp-JwV_G-eHVTyk-34" style="shape=partialRectangle;connectable=0;fillColor=none;top=0;left=0;bottom=0;right=0;editable=1;overflow=hidden;rounded=1;strokeColor=#909090;fontColor=#1A1A1A;" parent="9Ja0Sbp-JwV_G-eHVTyk-33" vertex="1">
          <mxGeometry width="33.29411764705878" height="30" as="geometry">
            <mxRectangle width="33.29411764705878" height="30" as="alternateBounds" />
          </mxGeometry>
        </mxCell>
        <mxCell id="9Ja0Sbp-JwV_G-eHVTyk-35" value="feedback_date" style="shape=partialRectangle;connectable=0;fillColor=none;top=0;left=0;bottom=0;right=0;align=left;spacingLeft=6;overflow=hidden;rounded=1;strokeColor=#909090;fontColor=#1A1A1A;" parent="9Ja0Sbp-JwV_G-eHVTyk-33" vertex="1">
          <mxGeometry x="33.29411764705878" width="112.70588235294122" height="30" as="geometry">
            <mxRectangle width="112.70588235294122" height="30" as="alternateBounds" />
          </mxGeometry>
        </mxCell>
        <mxCell id="9Ja0Sbp-JwV_G-eHVTyk-42" style="shape=tableRow;horizontal=0;startSize=0;swimlaneHead=0;swimlaneBody=0;fillColor=none;collapsible=0;dropTarget=0;points=[[0,0.5],[1,0.5]];portConstraint=eastwest;top=0;left=0;right=0;bottom=0;rounded=1;strokeColor=#909090;fontColor=#1A1A1A;" parent="9Ja0Sbp-JwV_G-eHVTyk-20" vertex="1">
          <mxGeometry y="180" width="146" height="30" as="geometry" />
        </mxCell>
        <mxCell id="9Ja0Sbp-JwV_G-eHVTyk-43" style="shape=partialRectangle;connectable=0;fillColor=none;top=0;left=0;bottom=0;right=0;editable=1;overflow=hidden;rounded=1;strokeColor=#909090;fontColor=#1A1A1A;" parent="9Ja0Sbp-JwV_G-eHVTyk-42" vertex="1">
          <mxGeometry width="33.29411764705878" height="30" as="geometry">
            <mxRectangle width="33.29411764705878" height="30" as="alternateBounds" />
          </mxGeometry>
        </mxCell>
        <mxCell id="9Ja0Sbp-JwV_G-eHVTyk-44" value="reply_id" style="shape=partialRectangle;connectable=0;fillColor=none;top=0;left=0;bottom=0;right=0;align=left;spacingLeft=6;overflow=hidden;rounded=1;strokeColor=#909090;fontColor=#1A1A1A;" parent="9Ja0Sbp-JwV_G-eHVTyk-42" vertex="1">
          <mxGeometry x="33.29411764705878" width="112.70588235294122" height="30" as="geometry">
            <mxRectangle width="112.70588235294122" height="30" as="alternateBounds" />
          </mxGeometry>
        </mxCell>
        <mxCell id="9Ja0Sbp-JwV_G-eHVTyk-45" value="Feedback Reply" style="shape=table;startSize=30;container=1;collapsible=1;childLayout=tableLayout;fixedRows=1;rowLines=0;fontStyle=1;align=center;resizeLast=1;rounded=1;fillColor=#F5AB50;strokeColor=#909090;fontColor=#1A1A1A;" parent="1" vertex="1">
          <mxGeometry x="666.53" y="138" width="146" height="210" as="geometry" />
        </mxCell>
        <mxCell id="9Ja0Sbp-JwV_G-eHVTyk-46" value="" style="shape=tableRow;horizontal=0;startSize=0;swimlaneHead=0;swimlaneBody=0;fillColor=none;collapsible=0;dropTarget=0;points=[[0,0.5],[1,0.5]];portConstraint=eastwest;top=0;left=0;right=0;bottom=1;rounded=1;strokeColor=#909090;fontColor=#1A1A1A;" parent="9Ja0Sbp-JwV_G-eHVTyk-45" vertex="1">
          <mxGeometry y="30" width="146" height="30" as="geometry" />
        </mxCell>
        <mxCell id="9Ja0Sbp-JwV_G-eHVTyk-47" value="PK" style="shape=partialRectangle;connectable=0;fillColor=none;top=0;left=0;bottom=0;right=0;fontStyle=1;overflow=hidden;rounded=1;strokeColor=#909090;fontColor=#1A1A1A;" parent="9Ja0Sbp-JwV_G-eHVTyk-46" vertex="1">
          <mxGeometry width="33.29411764705878" height="30" as="geometry">
            <mxRectangle width="33.29411764705878" height="30" as="alternateBounds" />
          </mxGeometry>
        </mxCell>
        <mxCell id="9Ja0Sbp-JwV_G-eHVTyk-48" value="id" style="shape=partialRectangle;connectable=0;fillColor=none;top=0;left=0;bottom=0;right=0;align=left;spacingLeft=6;fontStyle=5;overflow=hidden;rounded=1;strokeColor=#909090;fontColor=#1A1A1A;" parent="9Ja0Sbp-JwV_G-eHVTyk-46" vertex="1">
          <mxGeometry x="33.29411764705878" width="112.70588235294122" height="30" as="geometry">
            <mxRectangle width="112.70588235294122" height="30" as="alternateBounds" />
          </mxGeometry>
        </mxCell>
        <mxCell id="9Ja0Sbp-JwV_G-eHVTyk-64" style="shape=tableRow;horizontal=0;startSize=0;swimlaneHead=0;swimlaneBody=0;fillColor=none;collapsible=0;dropTarget=0;points=[[0,0.5],[1,0.5]];portConstraint=eastwest;top=0;left=0;right=0;bottom=0;rounded=1;strokeColor=#909090;fontColor=#1A1A1A;" parent="9Ja0Sbp-JwV_G-eHVTyk-45" vertex="1">
          <mxGeometry y="60" width="146" height="30" as="geometry" />
        </mxCell>
        <mxCell id="9Ja0Sbp-JwV_G-eHVTyk-65" style="shape=partialRectangle;connectable=0;fillColor=none;top=0;left=0;bottom=0;right=0;editable=1;overflow=hidden;rounded=1;strokeColor=#909090;fontColor=#1A1A1A;" parent="9Ja0Sbp-JwV_G-eHVTyk-64" vertex="1">
          <mxGeometry width="33.29411764705878" height="30" as="geometry">
            <mxRectangle width="33.29411764705878" height="30" as="alternateBounds" />
          </mxGeometry>
        </mxCell>
        <mxCell id="9Ja0Sbp-JwV_G-eHVTyk-66" value="feedback_id" style="shape=partialRectangle;connectable=0;fillColor=none;top=0;left=0;bottom=0;right=0;align=left;spacingLeft=6;overflow=hidden;rounded=1;strokeColor=#909090;fontColor=#1A1A1A;" parent="9Ja0Sbp-JwV_G-eHVTyk-64" vertex="1">
          <mxGeometry x="33.29411764705878" width="112.70588235294122" height="30" as="geometry">
            <mxRectangle width="112.70588235294122" height="30" as="alternateBounds" />
          </mxGeometry>
        </mxCell>
        <mxCell id="9Ja0Sbp-JwV_G-eHVTyk-49" value="" style="shape=tableRow;horizontal=0;startSize=0;swimlaneHead=0;swimlaneBody=0;fillColor=none;collapsible=0;dropTarget=0;points=[[0,0.5],[1,0.5]];portConstraint=eastwest;top=0;left=0;right=0;bottom=0;rounded=1;strokeColor=#909090;fontColor=#1A1A1A;" parent="9Ja0Sbp-JwV_G-eHVTyk-45" vertex="1">
          <mxGeometry y="90" width="146" height="30" as="geometry" />
        </mxCell>
        <mxCell id="9Ja0Sbp-JwV_G-eHVTyk-50" value="" style="shape=partialRectangle;connectable=0;fillColor=none;top=0;left=0;bottom=0;right=0;editable=1;overflow=hidden;rounded=1;strokeColor=#909090;fontColor=#1A1A1A;" parent="9Ja0Sbp-JwV_G-eHVTyk-49" vertex="1">
          <mxGeometry width="33.29411764705878" height="30" as="geometry">
            <mxRectangle width="33.29411764705878" height="30" as="alternateBounds" />
          </mxGeometry>
        </mxCell>
        <mxCell id="9Ja0Sbp-JwV_G-eHVTyk-51" value="admin_id" style="shape=partialRectangle;connectable=0;fillColor=none;top=0;left=0;bottom=0;right=0;align=left;spacingLeft=6;overflow=hidden;rounded=1;strokeColor=#909090;fontColor=#1A1A1A;" parent="9Ja0Sbp-JwV_G-eHVTyk-49" vertex="1">
          <mxGeometry x="33.29411764705878" width="112.70588235294122" height="30" as="geometry">
            <mxRectangle width="112.70588235294122" height="30" as="alternateBounds" />
          </mxGeometry>
        </mxCell>
        <mxCell id="9Ja0Sbp-JwV_G-eHVTyk-52" value="" style="shape=tableRow;horizontal=0;startSize=0;swimlaneHead=0;swimlaneBody=0;fillColor=none;collapsible=0;dropTarget=0;points=[[0,0.5],[1,0.5]];portConstraint=eastwest;top=0;left=0;right=0;bottom=0;rounded=1;strokeColor=#909090;fontColor=#1A1A1A;" parent="9Ja0Sbp-JwV_G-eHVTyk-45" vertex="1">
          <mxGeometry y="120" width="146" height="30" as="geometry" />
        </mxCell>
        <mxCell id="9Ja0Sbp-JwV_G-eHVTyk-53" value="" style="shape=partialRectangle;connectable=0;fillColor=none;top=0;left=0;bottom=0;right=0;editable=1;overflow=hidden;rounded=1;strokeColor=#909090;fontColor=#1A1A1A;" parent="9Ja0Sbp-JwV_G-eHVTyk-52" vertex="1">
          <mxGeometry width="33.29411764705878" height="30" as="geometry">
            <mxRectangle width="33.29411764705878" height="30" as="alternateBounds" />
          </mxGeometry>
        </mxCell>
        <mxCell id="9Ja0Sbp-JwV_G-eHVTyk-54" value="title" style="shape=partialRectangle;connectable=0;fillColor=none;top=0;left=0;bottom=0;right=0;align=left;spacingLeft=6;overflow=hidden;rounded=1;strokeColor=#909090;fontColor=#1A1A1A;" parent="9Ja0Sbp-JwV_G-eHVTyk-52" vertex="1">
          <mxGeometry x="33.29411764705878" width="112.70588235294122" height="30" as="geometry">
            <mxRectangle width="112.70588235294122" height="30" as="alternateBounds" />
          </mxGeometry>
        </mxCell>
        <mxCell id="9Ja0Sbp-JwV_G-eHVTyk-55" value="" style="shape=tableRow;horizontal=0;startSize=0;swimlaneHead=0;swimlaneBody=0;fillColor=none;collapsible=0;dropTarget=0;points=[[0,0.5],[1,0.5]];portConstraint=eastwest;top=0;left=0;right=0;bottom=0;rounded=1;strokeColor=#909090;fontColor=#1A1A1A;" parent="9Ja0Sbp-JwV_G-eHVTyk-45" vertex="1">
          <mxGeometry y="150" width="146" height="30" as="geometry" />
        </mxCell>
        <mxCell id="9Ja0Sbp-JwV_G-eHVTyk-56" value="" style="shape=partialRectangle;connectable=0;fillColor=none;top=0;left=0;bottom=0;right=0;editable=1;overflow=hidden;rounded=1;strokeColor=#909090;fontColor=#1A1A1A;" parent="9Ja0Sbp-JwV_G-eHVTyk-55" vertex="1">
          <mxGeometry width="33.29411764705878" height="30" as="geometry">
            <mxRectangle width="33.29411764705878" height="30" as="alternateBounds" />
          </mxGeometry>
        </mxCell>
        <mxCell id="9Ja0Sbp-JwV_G-eHVTyk-57" value="content" style="shape=partialRectangle;connectable=0;fillColor=none;top=0;left=0;bottom=0;right=0;align=left;spacingLeft=6;overflow=hidden;rounded=1;strokeColor=#909090;fontColor=#1A1A1A;" parent="9Ja0Sbp-JwV_G-eHVTyk-55" vertex="1">
          <mxGeometry x="33.29411764705878" width="112.70588235294122" height="30" as="geometry">
            <mxRectangle width="112.70588235294122" height="30" as="alternateBounds" />
          </mxGeometry>
        </mxCell>
        <mxCell id="9Ja0Sbp-JwV_G-eHVTyk-61" style="shape=tableRow;horizontal=0;startSize=0;swimlaneHead=0;swimlaneBody=0;fillColor=none;collapsible=0;dropTarget=0;points=[[0,0.5],[1,0.5]];portConstraint=eastwest;top=0;left=0;right=0;bottom=0;rounded=1;strokeColor=#909090;fontColor=#1A1A1A;" parent="9Ja0Sbp-JwV_G-eHVTyk-45" vertex="1">
          <mxGeometry y="180" width="146" height="30" as="geometry" />
        </mxCell>
        <mxCell id="9Ja0Sbp-JwV_G-eHVTyk-62" style="shape=partialRectangle;connectable=0;fillColor=none;top=0;left=0;bottom=0;right=0;editable=1;overflow=hidden;rounded=1;strokeColor=#909090;fontColor=#1A1A1A;" parent="9Ja0Sbp-JwV_G-eHVTyk-61" vertex="1">
          <mxGeometry width="33.29411764705878" height="30" as="geometry">
            <mxRectangle width="33.29411764705878" height="30" as="alternateBounds" />
          </mxGeometry>
        </mxCell>
        <mxCell id="9Ja0Sbp-JwV_G-eHVTyk-63" value="reply_date" style="shape=partialRectangle;connectable=0;fillColor=none;top=0;left=0;bottom=0;right=0;align=left;spacingLeft=6;overflow=hidden;rounded=1;strokeColor=#909090;fontColor=#1A1A1A;" parent="9Ja0Sbp-JwV_G-eHVTyk-61" vertex="1">
          <mxGeometry x="33.29411764705878" width="112.70588235294122" height="30" as="geometry">
            <mxRectangle width="112.70588235294122" height="30" as="alternateBounds" />
          </mxGeometry>
        </mxCell>
        <mxCell id="9Ja0Sbp-JwV_G-eHVTyk-67" style="edgeStyle=orthogonalEdgeStyle;rounded=1;orthogonalLoop=1;jettySize=auto;html=1;exitX=1;exitY=0.5;exitDx=0;exitDy=0;entryX=0;entryY=0.5;entryDx=0;entryDy=0;endArrow=ERone;endFill=0;startArrow=ERone;startFill=0;" parent="1" source="9Ja0Sbp-JwV_G-eHVTyk-21" target="9Ja0Sbp-JwV_G-eHVTyk-64" edge="1">
          <mxGeometry relative="1" as="geometry">
            <Array as="points">
              <mxPoint x="632.53" y="183" />
              <mxPoint x="632.53" y="213" />
            </Array>
          </mxGeometry>
        </mxCell>
        <mxCell id="9Ja0Sbp-JwV_G-eHVTyk-68" style="edgeStyle=orthogonalEdgeStyle;rounded=1;orthogonalLoop=1;jettySize=auto;html=1;exitX=1;exitY=0.5;exitDx=0;exitDy=0;entryX=0;entryY=0.5;entryDx=0;entryDy=0;startArrow=ERmandOne;startFill=0;endArrow=ERzeroToOne;endFill=0;" parent="1" source="9Ja0Sbp-JwV_G-eHVTyk-42" target="9Ja0Sbp-JwV_G-eHVTyk-46" edge="1">
          <mxGeometry relative="1" as="geometry">
            <Array as="points">
              <mxPoint x="645.53" y="333" />
              <mxPoint x="645.53" y="183" />
            </Array>
          </mxGeometry>
        </mxCell>
        <mxCell id="9Ja0Sbp-JwV_G-eHVTyk-72" value="Discount Rate" style="shape=table;startSize=30;container=1;collapsible=1;childLayout=tableLayout;fixedRows=1;rowLines=0;fontStyle=1;align=center;resizeLast=1;rounded=1;fillColor=#F5AB50;strokeColor=#909090;fontColor=#1A1A1A;" parent="1" vertex="1">
          <mxGeometry x="1035" y="601" width="160" height="120" as="geometry" />
        </mxCell>
        <mxCell id="9Ja0Sbp-JwV_G-eHVTyk-73" value="" style="shape=tableRow;horizontal=0;startSize=0;swimlaneHead=0;swimlaneBody=0;fillColor=none;collapsible=0;dropTarget=0;points=[[0,0.5],[1,0.5]];portConstraint=eastwest;top=0;left=0;right=0;bottom=1;rounded=1;strokeColor=#909090;fontColor=#1A1A1A;" parent="9Ja0Sbp-JwV_G-eHVTyk-72" vertex="1">
          <mxGeometry y="30" width="160" height="30" as="geometry" />
        </mxCell>
        <mxCell id="9Ja0Sbp-JwV_G-eHVTyk-74" value="PK" style="shape=partialRectangle;connectable=0;fillColor=none;top=0;left=0;bottom=0;right=0;fontStyle=1;overflow=hidden;rounded=1;strokeColor=#909090;fontColor=#1A1A1A;" parent="9Ja0Sbp-JwV_G-eHVTyk-73" vertex="1">
          <mxGeometry width="30" height="30" as="geometry">
            <mxRectangle width="30" height="30" as="alternateBounds" />
          </mxGeometry>
        </mxCell>
        <mxCell id="9Ja0Sbp-JwV_G-eHVTyk-75" value="id" style="shape=partialRectangle;connectable=0;fillColor=none;top=0;left=0;bottom=0;right=0;align=left;spacingLeft=6;fontStyle=5;overflow=hidden;rounded=1;strokeColor=#909090;fontColor=#1A1A1A;" parent="9Ja0Sbp-JwV_G-eHVTyk-73" vertex="1">
          <mxGeometry x="30" width="130" height="30" as="geometry">
            <mxRectangle width="130" height="30" as="alternateBounds" />
          </mxGeometry>
        </mxCell>
        <mxCell id="9Ja0Sbp-JwV_G-eHVTyk-76" value="" style="shape=tableRow;horizontal=0;startSize=0;swimlaneHead=0;swimlaneBody=0;fillColor=none;collapsible=0;dropTarget=0;points=[[0,0.5],[1,0.5]];portConstraint=eastwest;top=0;left=0;right=0;bottom=0;rounded=1;strokeColor=#909090;fontColor=#1A1A1A;" parent="9Ja0Sbp-JwV_G-eHVTyk-72" vertex="1">
          <mxGeometry y="60" width="160" height="30" as="geometry" />
        </mxCell>
        <mxCell id="9Ja0Sbp-JwV_G-eHVTyk-77" value="" style="shape=partialRectangle;connectable=0;fillColor=none;top=0;left=0;bottom=0;right=0;editable=1;overflow=hidden;rounded=1;strokeColor=#909090;fontColor=#1A1A1A;" parent="9Ja0Sbp-JwV_G-eHVTyk-76" vertex="1">
          <mxGeometry width="30" height="30" as="geometry">
            <mxRectangle width="30" height="30" as="alternateBounds" />
          </mxGeometry>
        </mxCell>
        <mxCell id="9Ja0Sbp-JwV_G-eHVTyk-78" value="point_greater_than" style="shape=partialRectangle;connectable=0;fillColor=none;top=0;left=0;bottom=0;right=0;align=left;spacingLeft=6;overflow=hidden;rounded=1;strokeColor=#909090;fontColor=#1A1A1A;" parent="9Ja0Sbp-JwV_G-eHVTyk-76" vertex="1">
          <mxGeometry x="30" width="130" height="30" as="geometry">
            <mxRectangle width="130" height="30" as="alternateBounds" />
          </mxGeometry>
        </mxCell>
        <mxCell id="9Ja0Sbp-JwV_G-eHVTyk-79" value="" style="shape=tableRow;horizontal=0;startSize=0;swimlaneHead=0;swimlaneBody=0;fillColor=none;collapsible=0;dropTarget=0;points=[[0,0.5],[1,0.5]];portConstraint=eastwest;top=0;left=0;right=0;bottom=0;rounded=1;strokeColor=#909090;fontColor=#1A1A1A;" parent="9Ja0Sbp-JwV_G-eHVTyk-72" vertex="1">
          <mxGeometry y="90" width="160" height="30" as="geometry" />
        </mxCell>
        <mxCell id="9Ja0Sbp-JwV_G-eHVTyk-80" value="" style="shape=partialRectangle;connectable=0;fillColor=none;top=0;left=0;bottom=0;right=0;editable=1;overflow=hidden;rounded=1;strokeColor=#909090;fontColor=#1A1A1A;" parent="9Ja0Sbp-JwV_G-eHVTyk-79" vertex="1">
          <mxGeometry width="30" height="30" as="geometry">
            <mxRectangle width="30" height="30" as="alternateBounds" />
          </mxGeometry>
        </mxCell>
        <mxCell id="9Ja0Sbp-JwV_G-eHVTyk-81" value="rate" style="shape=partialRectangle;connectable=0;fillColor=none;top=0;left=0;bottom=0;right=0;align=left;spacingLeft=6;overflow=hidden;rounded=1;strokeColor=#909090;fontColor=#1A1A1A;" parent="9Ja0Sbp-JwV_G-eHVTyk-79" vertex="1">
          <mxGeometry x="30" width="130" height="30" as="geometry">
            <mxRectangle width="130" height="30" as="alternateBounds" />
          </mxGeometry>
        </mxCell>
        <mxCell id="9Ja0Sbp-JwV_G-eHVTyk-91" style="edgeStyle=orthogonalEdgeStyle;rounded=1;orthogonalLoop=1;jettySize=auto;html=1;exitX=1;exitY=0.5;exitDx=0;exitDy=0;entryX=1;entryY=0.5;entryDx=0;entryDy=0;startArrow=ERmandOne;startFill=0;endArrow=ERzeroToOne;endFill=0;" parent="1" source="9Ja0Sbp-JwV_G-eHVTyk-73" target="9Ja0Sbp-JwV_G-eHVTyk-88" edge="1">
          <mxGeometry relative="1" as="geometry" />
        </mxCell>
        <mxCell id="9Ja0Sbp-JwV_G-eHVTyk-92" value="Admin" style="shape=table;startSize=30;container=1;collapsible=1;childLayout=tableLayout;fixedRows=1;rowLines=0;fontStyle=1;align=center;resizeLast=1;rounded=1;fillColor=#F5AB50;strokeColor=#909090;fontColor=#1A1A1A;" parent="1" vertex="1">
          <mxGeometry x="314" y="17" width="146" height="180" as="geometry" />
        </mxCell>
        <mxCell id="9Ja0Sbp-JwV_G-eHVTyk-93" value="" style="shape=tableRow;horizontal=0;startSize=0;swimlaneHead=0;swimlaneBody=0;fillColor=none;collapsible=0;dropTarget=0;points=[[0,0.5],[1,0.5]];portConstraint=eastwest;top=0;left=0;right=0;bottom=1;rounded=1;strokeColor=#909090;fontColor=#1A1A1A;" parent="9Ja0Sbp-JwV_G-eHVTyk-92" vertex="1">
          <mxGeometry y="30" width="146" height="30" as="geometry" />
        </mxCell>
        <mxCell id="9Ja0Sbp-JwV_G-eHVTyk-94" value="PK" style="shape=partialRectangle;connectable=0;fillColor=none;top=0;left=0;bottom=0;right=0;fontStyle=1;overflow=hidden;rounded=1;strokeColor=#909090;fontColor=#1A1A1A;" parent="9Ja0Sbp-JwV_G-eHVTyk-93" vertex="1">
          <mxGeometry width="33.29411764705878" height="30" as="geometry">
            <mxRectangle width="33.29411764705878" height="30" as="alternateBounds" />
          </mxGeometry>
        </mxCell>
        <mxCell id="9Ja0Sbp-JwV_G-eHVTyk-95" value="id" style="shape=partialRectangle;connectable=0;fillColor=none;top=0;left=0;bottom=0;right=0;align=left;spacingLeft=6;fontStyle=5;overflow=hidden;rounded=1;strokeColor=#909090;fontColor=#1A1A1A;" parent="9Ja0Sbp-JwV_G-eHVTyk-93" vertex="1">
          <mxGeometry x="33.29411764705878" width="112.70588235294122" height="30" as="geometry">
            <mxRectangle width="112.70588235294122" height="30" as="alternateBounds" />
          </mxGeometry>
        </mxCell>
        <mxCell id="9Ja0Sbp-JwV_G-eHVTyk-96" style="shape=tableRow;horizontal=0;startSize=0;swimlaneHead=0;swimlaneBody=0;fillColor=none;collapsible=0;dropTarget=0;points=[[0,0.5],[1,0.5]];portConstraint=eastwest;top=0;left=0;right=0;bottom=0;rounded=1;strokeColor=#909090;fontColor=#1A1A1A;" parent="9Ja0Sbp-JwV_G-eHVTyk-92" vertex="1">
          <mxGeometry y="60" width="146" height="30" as="geometry" />
        </mxCell>
        <mxCell id="9Ja0Sbp-JwV_G-eHVTyk-97" style="shape=partialRectangle;connectable=0;fillColor=none;top=0;left=0;bottom=0;right=0;editable=1;overflow=hidden;rounded=1;strokeColor=#909090;fontColor=#1A1A1A;" parent="9Ja0Sbp-JwV_G-eHVTyk-96" vertex="1">
          <mxGeometry width="33.29411764705878" height="30" as="geometry">
            <mxRectangle width="33.29411764705878" height="30" as="alternateBounds" />
          </mxGeometry>
        </mxCell>
        <mxCell id="9Ja0Sbp-JwV_G-eHVTyk-98" value="username" style="shape=partialRectangle;connectable=0;fillColor=none;top=0;left=0;bottom=0;right=0;align=left;spacingLeft=6;overflow=hidden;rounded=1;strokeColor=#909090;fontColor=#1A1A1A;" parent="9Ja0Sbp-JwV_G-eHVTyk-96" vertex="1">
          <mxGeometry x="33.29411764705878" width="112.70588235294122" height="30" as="geometry">
            <mxRectangle width="112.70588235294122" height="30" as="alternateBounds" />
          </mxGeometry>
        </mxCell>
        <mxCell id="9Ja0Sbp-JwV_G-eHVTyk-99" value="" style="shape=tableRow;horizontal=0;startSize=0;swimlaneHead=0;swimlaneBody=0;fillColor=none;collapsible=0;dropTarget=0;points=[[0,0.5],[1,0.5]];portConstraint=eastwest;top=0;left=0;right=0;bottom=0;rounded=1;strokeColor=#909090;fontColor=#1A1A1A;" parent="9Ja0Sbp-JwV_G-eHVTyk-92" vertex="1">
          <mxGeometry y="90" width="146" height="30" as="geometry" />
        </mxCell>
        <mxCell id="9Ja0Sbp-JwV_G-eHVTyk-100" value="" style="shape=partialRectangle;connectable=0;fillColor=none;top=0;left=0;bottom=0;right=0;editable=1;overflow=hidden;rounded=1;strokeColor=#909090;fontColor=#1A1A1A;" parent="9Ja0Sbp-JwV_G-eHVTyk-99" vertex="1">
          <mxGeometry width="33.29411764705878" height="30" as="geometry">
            <mxRectangle width="33.29411764705878" height="30" as="alternateBounds" />
          </mxGeometry>
        </mxCell>
        <mxCell id="9Ja0Sbp-JwV_G-eHVTyk-101" value="password" style="shape=partialRectangle;connectable=0;fillColor=none;top=0;left=0;bottom=0;right=0;align=left;spacingLeft=6;overflow=hidden;rounded=1;strokeColor=#909090;fontColor=#1A1A1A;" parent="9Ja0Sbp-JwV_G-eHVTyk-99" vertex="1">
          <mxGeometry x="33.29411764705878" width="112.70588235294122" height="30" as="geometry">
            <mxRectangle width="112.70588235294122" height="30" as="alternateBounds" />
          </mxGeometry>
        </mxCell>
        <mxCell id="9Ja0Sbp-JwV_G-eHVTyk-102" value="" style="shape=tableRow;horizontal=0;startSize=0;swimlaneHead=0;swimlaneBody=0;fillColor=none;collapsible=0;dropTarget=0;points=[[0,0.5],[1,0.5]];portConstraint=eastwest;top=0;left=0;right=0;bottom=0;rounded=1;strokeColor=#909090;fontColor=#1A1A1A;" parent="9Ja0Sbp-JwV_G-eHVTyk-92" vertex="1">
          <mxGeometry y="120" width="146" height="30" as="geometry" />
        </mxCell>
        <mxCell id="9Ja0Sbp-JwV_G-eHVTyk-103" value="" style="shape=partialRectangle;connectable=0;fillColor=none;top=0;left=0;bottom=0;right=0;editable=1;overflow=hidden;rounded=1;strokeColor=#909090;fontColor=#1A1A1A;" parent="9Ja0Sbp-JwV_G-eHVTyk-102" vertex="1">
          <mxGeometry width="33.29411764705878" height="30" as="geometry">
            <mxRectangle width="33.29411764705878" height="30" as="alternateBounds" />
          </mxGeometry>
        </mxCell>
        <mxCell id="9Ja0Sbp-JwV_G-eHVTyk-104" value="role" style="shape=partialRectangle;connectable=0;fillColor=none;top=0;left=0;bottom=0;right=0;align=left;spacingLeft=6;overflow=hidden;rounded=1;strokeColor=#909090;fontColor=#1A1A1A;" parent="9Ja0Sbp-JwV_G-eHVTyk-102" vertex="1">
          <mxGeometry x="33.29411764705878" width="112.70588235294122" height="30" as="geometry">
            <mxRectangle width="112.70588235294122" height="30" as="alternateBounds" />
          </mxGeometry>
        </mxCell>
        <mxCell id="9Ja0Sbp-JwV_G-eHVTyk-105" value="" style="shape=tableRow;horizontal=0;startSize=0;swimlaneHead=0;swimlaneBody=0;fillColor=none;collapsible=0;dropTarget=0;points=[[0,0.5],[1,0.5]];portConstraint=eastwest;top=0;left=0;right=0;bottom=0;rounded=1;strokeColor=#909090;fontColor=#1A1A1A;" parent="9Ja0Sbp-JwV_G-eHVTyk-92" vertex="1">
          <mxGeometry y="150" width="146" height="30" as="geometry" />
        </mxCell>
        <mxCell id="9Ja0Sbp-JwV_G-eHVTyk-106" value="" style="shape=partialRectangle;connectable=0;fillColor=none;top=0;left=0;bottom=0;right=0;editable=1;overflow=hidden;rounded=1;strokeColor=#909090;fontColor=#1A1A1A;" parent="9Ja0Sbp-JwV_G-eHVTyk-105" vertex="1">
          <mxGeometry width="33.29411764705878" height="30" as="geometry">
            <mxRectangle width="33.29411764705878" height="30" as="alternateBounds" />
          </mxGeometry>
        </mxCell>
        <mxCell id="9Ja0Sbp-JwV_G-eHVTyk-107" value="permission" style="shape=partialRectangle;connectable=0;fillColor=none;top=0;left=0;bottom=0;right=0;align=left;spacingLeft=6;overflow=hidden;rounded=1;strokeColor=#909090;fontColor=#1A1A1A;" parent="9Ja0Sbp-JwV_G-eHVTyk-105" vertex="1">
          <mxGeometry x="33.29411764705878" width="112.70588235294122" height="30" as="geometry">
            <mxRectangle width="112.70588235294122" height="30" as="alternateBounds" />
          </mxGeometry>
        </mxCell>
      </root>
    </mxGraphModel>
  </diagram>
</mxfile>
